<?xml version="1.0" encoding="utf-8"?>
<!-- Generator: Adobe Illustrator 22.1.0, SVG Export Plug-In . SVG Version: 6.00 Build 0)  -->
<svg version="1.1" xmlns="http://www.w3.org/2000/svg" xmlns:xlink="http://www.w3.org/1999/xlink" x="0px" y="0px"
	 viewBox="0 0 453.5 453.5" style="enable-background:new 0 0 453.5 453.5;" xml:space="preserve">
<style type="text/css">
	.st0{display:none;}
	.st1{display:inline;}
	.st2{fill:#009EC1;}
	.st3{fill:#003854;}
	.st4{fill:#646463;}
	.st5{fill:#C9C7C7;}
	.st6{fill:#FFFFFF;}
	.st7{display:inline;fill:#FFFFFF;}
</style>
<g id="POLYGONE_BLEU" class="st0">
	<g id="Calque_3" class="st1">
		<polyline class="st2" points="227,440.4 352,399.8 429.2,293.5 429.2,162.1 352,55.8 227,15.2 102,55.8 24.8,162.1 24.8,293.5 
			102,399.8 227,440.4 		"/>
	</g>
</g>
<g id="POLYGONE_BLEU_NUIT">
	<g id="Calque_3_1_">
		<polyline class="st3" points="227,440.4 352,399.8 429.2,293.5 429.2,162.1 352,55.8 227,15.2 102,55.8 24.8,162.1 24.8,293.5 
			102,399.8 227,440.4 		"/>
	</g>
</g>
<g id="POLYGONE_GRIS" class="st0">
	<g id="Calque_3_2_" class="st1">
		<polyline class="st4" points="227,440.4 352,399.8 429.2,293.5 429.2,162.1 352,55.8 227,15.2 102,55.8 24.8,162.1 24.8,293.5 
			102,399.8 227,440.4 		"/>
	</g>
</g>
<g id="POLYGONE_GRIS_CLAIR" class="st0">
	<g id="Calque_3_3_" class="st1">
		<polyline class="st5" points="227,440.4 352,399.8 429.2,293.5 429.2,162.1 352,55.8 227,15.2 102,55.8 24.8,162.1 24.8,293.5 
			102,399.8 227,440.4 		"/>
	</g>
</g>
<g id="ANIMER" class="st0">
	<g id="Calque_2_1_" class="st1">
		<path class="st6" d="M281,182.6c-1.1,0-2.3,0-3.4,0.1c-11.2-38.5-51-67.1-98.2-67.1c-55.9,0-101.3,40-101.3,89.1
			s45.5,89.1,101.3,89.1c4.7,0,9.3-0.3,13.9-0.8c4,9.2,9.9,17.7,17.5,25.2l-7.6,27.1c-0.5,1.6,0.2,3.4,1.5,4.3
			c0.7,0.5,1.5,0.7,2.3,0.7s1.6-0.2,2.3-0.7l22.9-15.8c3.4,1.8,6.9,3.4,10.4,4.8c12.1,4.7,25,7.1,38.4,7.1
			c51.7,0,93.8-36.6,93.8-81.6C374.8,219.2,332.8,182.6,281,182.6z M281,337.7c-12.4,0-24.3-2.2-35.5-6.6c-3.9-1.5-7.7-3.3-11.3-5.4
			c-1.3-0.9-3.1-0.9-4.5,0l-15.8,10.9l5.2-18.8c0.5-1.7-0.2-3.4-1.6-4.4c-6.9-6.5-12.3-14-16.1-21.9c6.7-1.3,13.2-3.2,19.4-5.7
			c3.9-1.6,7.8-3.3,11.4-5.3l24.9,17.5c0.7,0.5,1.5,0.7,2.3,0.7s1.6-0.2,2.3-0.7c1.4-1,2-2.7,1.5-4.3l-8.3-29.9
			c16.5-16.3,25.6-37.3,25.6-59.2c0-4.8-0.4-9.5-1.3-14.1c0.5,0,1,0,1.5,0c47.3,0,85.8,33,85.8,73.6
			C366.8,304.7,328.3,337.7,281,337.7z"/>
	</g>
</g>
<g id="BRIQUES_x5F_TECHNOLOGIQUES" class="st0">
	<path class="st7" d="M147.6,222.7l-29.4-18.1c-1.2-0.7-2.7-0.7-3.8,0.1c-1.1,0.8-1.7,2.1-1.5,3.5l2.1,13.5l0,0h-40
		c-2.2,0-4,1.8-4,4s1.8,4,4,4h39.8l0.2,0.2l-2.1,13.3c-0.2,1.4,0.4,2.7,1.5,3.5c0.6,0.4,1.3,0.6,2,0.6c0.6,0,1.3-0.2,1.9-0.5
		l29.4-18.1c1.1-0.6,1.7-1.8,1.7-3C149.3,224.5,148.7,223.4,147.6,222.7z"/>
	<path class="st7" d="M313.6,326.5c-0.7,0-1.4-0.2-2-0.5L284,310.1c-1.2-0.7-2-2-2-3.5l0-31.8c0-1.4,0.8-2.8,2-3.5l27.6-16
		c1.2-0.7,2.8-0.7,4,0l27.6,15.9c1.2,0.7,2,2,2,3.5l0,31.9c0,1.4-0.8,2.8-2,3.5l-27.6,16C315,326.4,314.3,326.5,313.6,326.5z
		 M290,304.3l23.6,13.6l23.6-13.7l0-27.2l-23.6-13.6L290,277.1L290,304.3z"/>
	<path class="st7" d="M277.2,263.8c-0.7,0-1.4-0.2-2-0.5l-27.6-15.9c-1.2-0.7-2-2-2-3.5l-0.1-31.8c0-1.4,0.8-2.8,2-3.5l27.6-16
		c1.2-0.7,2.8-0.7,4,0l27.6,15.9c1.2,0.7,2,2,2,3.5l0.1,31.9c0,1.4-0.8,2.8-2,3.5l-27.6,16C278.6,263.7,277.9,263.8,277.2,263.8z
		 M253.6,241.6l23.6,13.6l23.6-13.7l0-27.2l-23.6-13.6l-23.6,13.7L253.6,241.6z"/>
	<path class="st7" d="M242.3,325.8c-0.7,0-1.4-0.2-2-0.5l-27.6-15.9c-1.2-0.7-2-2-2-3.5l-0.1-31.8c0-1.4,0.8-2.8,2-3.5l27.6-16
		c1.2-0.7,2.8-0.7,4,0l27.6,15.9c1.2,0.7,2,2,2,3.5l0,31.9c0,1.4-0.8,2.8-2,3.5l-27.6,16C243.6,325.6,242.9,325.8,242.3,325.8z
		 M218.6,303.5l23.6,13.6l23.6-13.7l0-27.2l-23.6-13.6l-23.6,13.7L218.6,303.5z"/>
	<path class="st7" d="M348,264.9c-0.7,0-1.4-0.2-2-0.5l-27.6-15.9c-1.2-0.7-2-2-2-3.5l-0.1-31.9c0-1.4,0.8-2.8,2-3.5l27.6-16
		c1.2-0.7,2.8-0.7,4,0l27.6,15.9c1.2,0.7,2,2,2,3.5l0,31.9c0,1.4-0.8,2.8-2,3.5l-27.6,16C349.4,264.8,348.7,264.9,348,264.9z
		 M324.4,242.7l23.6,13.6l23.6-13.7l0-27.3l-23.6-13.6l-23.6,13.7L324.4,242.7z"/>
	<path class="st7" d="M223.4,211.9c0-1.3-0.7-2.4-1.8-3.1L194,192.9c-1.1-0.6-2.4-0.6-3.5,0l-27.6,16c-1.1,0.6-1.8,1.8-1.8,3.1
		l0,31.8c0,1.3,0.7,2.4,1.8,3.1l27.6,15.9c0.5,0.3,1.2,0.5,1.8,0.5c0.6,0,1.2-0.2,1.8-0.5l27.6-16c1.1-0.6,1.8-1.8,1.8-3.1
		L223.4,211.9z"/>
	<path class="st7" d="M313,202.9c-0.7,0-1.4-0.2-2-0.5l-27.6-15.9c-1.2-0.7-2-2-2-3.5l0-31.9c0-1.4,0.8-2.8,2-3.5l27.6-16
		c1.2-0.7,2.8-0.7,4,0l27.6,15.9c1.2,0.7,2,2,2,3.5l0,31.9c0,1.4-0.8,2.8-2,3.5l-27.6,16C314.4,202.7,313.7,202.9,313,202.9z
		 M289.4,180.7l23.6,13.6l23.6-13.7l0-27.2l-23.6-13.6l-23.6,13.7L289.4,180.7z"/>
	<path class="st7" d="M242.3,201.9c-0.7,0-1.4-0.2-2-0.5l-27.6-15.9c-1.2-0.7-2-2-2-3.5l-0.1-31.8c0-1.4,0.8-2.8,2-3.5l27.6-16
		c1.2-0.7,2.8-0.7,4,0l27.6,15.9c1.2,0.7,2,2,2,3.5l0,31.9c0,1.4-0.8,2.8-2,3.5l-27.6,16C243.6,201.8,243,201.9,242.3,201.9z
		 M218.6,179.7l23.6,13.6l23.6-13.7l0-27.3l-23.6-13.6l-23.6,13.7L218.6,179.7z"/>
</g>
<g id="CARTOGRAPHIER_x5F_FORMATIONS" class="st0">
	<path class="st7" d="M383.9,193.1H340c-2.2,0-4,1.8-4,4v13.6L317.1,225v-7.6c0-2.2-1.8-4-4-4h-17.9v-27.5h17.9c2.2,0,4-1.8,4-4
		v-31.3c0-2.2-1.8-4-4-4h-43.9c-2.2,0-4,1.8-4,4v31.3c0,2.2,1.8,4,4,4h17.9v27.5h-17.9c-2.2,0-4,1.8-4,4v16.2L255,251.6V241
		c0-2.2-1.8-4-4-4h-63.1c-2.2,0-4,1.8-4,4v18.1l-17.7-12.5v-15.2c0-2.2-1.8-4-4-4h-8.8L172,215h18.5c2.2,0,4-1.8,4-4v-31.2
		c0-2.2-1.8-4-4-4h-43.9c-2.2,0-4,1.8-4,4v10.3l-10.1-2.9c1-0.7,1.7-1.9,1.7-3.2v-31.3c0-2.2-1.8-4-4-4H86.2c-2.2,0-4,1.8-4,4v31.3
		c0,2.2,1.8,4,4,4h20l36.3,10.5V211c0,2.2,1.8,4,4,4h11l-18.5,12.4h-20.7c-2.2,0-4,1.8-4,4v31.3c0,2.2,1.8,4,4,4h3.9l-12,8.8H89.6
		c-2.2,0-4,1.8-4,4v31.3c0,2.2,1.8,4,4,4h43.9c2.2,0,4-1.8,4-4v-31.3c0-2.2-1.8-4-4-4h-9.6l12-8.7c0,0,0,0,0,0h26.4c2.2,0,4-1.8,4-4
		v-6.3l17.7,12.5v22.6c0,2.2,1.8,4,4,4H251c2.2,0,4-1.8,4-4v-23.6l10.3-18.3c0.4,1.7,2,3,3.9,3h43.9c2.2,0,4-1.8,4-4V235l18.9-14.3
		v7.6c0,2.2,1.8,4,4,4h43.9c2.2,0,4-1.8,4-4v-31.3C387.9,194.9,386.1,193.1,383.9,193.1z M273.2,154.6h35.9v23.3h-35.9V154.6z
		 M90.2,156.7h35.9v23.3H90.2V156.7z M150.5,183.8h35.9V207h-15.7c0,0,0,0,0,0h-20.2V183.8z M129.4,306.6H93.6v-23.3h17.9
		c0,0,0,0,0,0c0,0,0,0,0,0h17.9V306.6z M158.2,258.6h-35.9v-23.3h17.9c0,0,0,0,0,0c0,0,0,0,0,0h17.9V258.6z M247,287.5h-55.1V245
		H247V287.5z M309.1,244.6h-35.9v-23.3h35.9V244.6z M379.9,224.3H344v-23.3h35.9V224.3z"/>
</g>
<g id="CENTRE_x5F_TECHNOLOGIQUE_x5F_NATIONAL" class="st0">
	<g class="st1">
		<path class="st6" d="M326.8,277.6c-7.4,0-13.6,5.1-15.4,12h-69.1l-27.7-22.3v-16.2c6.9-1.8,11.9-8,11.9-15.4
			c0-8.8-7.2-15.9-15.9-15.9c-8.8,0-16,7.2-16,15.9c0,7.4,5.1,13.6,12,15.4v18.1c0,1.2,0.5,2.4,1.5,3.1l30.3,24.4
			c0.7,0.6,1.6,0.9,2.5,0.9h70.5c1.8,6.9,8,11.9,15.4,11.9c8.8,0,15.9-7.2,15.9-15.9C342.7,284.8,335.6,277.6,326.8,277.6z
			 M202.6,235.7c0-4.4,3.6-7.9,8-7.9c4.4,0,7.9,3.6,7.9,7.9c0,4.4-3.6,7.9-7.9,7.9C206.2,243.7,202.6,240.1,202.6,235.7z
			 M326.8,301.5c-4.4,0-8-3.6-8-7.9c0-4.4,3.6-8,8-8c4.4,0,7.9,3.6,7.9,8C334.7,298,331.2,301.5,326.8,301.5z"/>
		<path class="st6" d="M124.3,245.6c1.4,0.4,2.8,0.6,4.2,0.6c2.7,0,5.4-0.7,7.9-2.1c6.4-3.7,9.3-11.2,7.5-18l40.4-23.1
			c1.8,1.7,4.1,2.9,6.6,3.6c1.4,0.4,2.8,0.6,4.2,0.6c2.7,0,5.4-0.7,7.9-2.1c3.7-2.1,6.4-5.5,7.5-9.6c1.1-4.1,0.6-8.4-1.5-12.1
			c-2.1-3.7-5.5-6.4-9.6-7.5c-4.1-1.1-8.4-0.6-12.1,1.5c-6.7,3.8-9.6,11.8-7.2,18.9l-40,22.8c-2-2-4.4-3.5-7.2-4.3
			c-4.1-1.1-8.4-0.6-12.1,1.5c-3.7,2.1-6.4,5.5-7.5,9.6c-1.1,4.1-0.6,8.4,1.5,12.1C116.8,241.8,120.2,244.5,124.3,245.6z
			 M191.1,184.3c1.2-0.7,2.6-1,3.9-1c0.7,0,1.4,0.1,2.1,0.3c2,0.6,3.8,1.9,4.8,3.7c1.1,1.8,1.3,4,0.8,6c-0.6,2-1.9,3.8-3.7,4.8
			c-1.8,1.1-4,1.3-6,0.8c-1.7-0.5-3.1-1.4-4.2-2.8c0-0.1-0.1-0.2-0.1-0.3c-0.2-0.3-0.4-0.5-0.6-0.7
			C186,191.3,187.3,186.5,191.1,184.3z M120.8,228.1c0.6-2,1.9-3.8,3.7-4.8c1.2-0.7,2.6-1,3.9-1c0.7,0,1.4,0.1,2.1,0.3
			c2,0.6,3.8,1.9,4.8,3.7c2.2,3.8,0.8,8.7-3,10.8c-1.8,1.1-4,1.3-6,0.8c-2-0.6-3.8-1.9-4.8-3.7C120.6,232.3,120.3,230.2,120.8,228.1
			z"/>
		<path class="st6" d="M260.3,237.8c2.7,0,5.4-0.7,7.9-2.1c3.7-2.1,6.4-5.5,7.5-9.6c0.8-2.8,0.7-5.7,0-8.4l40.4-23.1
			c3,2.7,6.8,4.2,10.8,4.2c2.7,0,5.4-0.7,7.9-2.1c3.7-2.1,6.4-5.5,7.5-9.6c1.1-4.1,0.6-8.4-1.5-12.1c-2.1-3.7-5.5-6.4-9.6-7.5
			c-4.1-1.1-8.4-0.6-12.1,1.5c-6.7,3.8-9.6,11.8-7.2,18.9l-40,22.8c-2-2-4.4-3.5-7.2-4.3c-4.1-1.1-8.4-0.6-12.1,1.5
			c-3.7,2.1-6.4,5.5-7.5,9.6c-1.1,4.1-0.6,8.4,1.5,12.1C249.3,234.9,254.7,237.8,260.3,237.8z M322.9,175.9c1.2-0.7,2.6-1,3.9-1
			c0.7,0,1.4,0.1,2.1,0.3c2,0.6,3.8,1.9,4.8,3.7c1.1,1.8,1.3,4,0.8,6c-0.6,2-1.9,3.8-3.7,4.8c-3.5,2-7.8,1-10.2-2
			c0-0.1-0.1-0.2-0.1-0.3c-0.2-0.3-0.4-0.5-0.6-0.7C317.7,182.9,319.1,178.1,322.9,175.9z M252.6,219.7c0.6-2,1.9-3.8,3.7-4.8
			c1.2-0.7,2.6-1,3.9-1c0.7,0,1.4,0.1,2.1,0.3c2,0.6,3.8,1.9,4.8,3.7s1.3,4,0.8,6c-0.6,2-1.9,3.8-3.7,4.8c-3.8,2.2-8.7,0.8-10.8-3
			C252.3,223.9,252,221.8,252.6,219.7z"/>
		<path class="st6" d="M260.3,283.8c2.7,0,5.4-0.7,7.9-2.1c3.7-2.1,6.4-5.5,7.5-9.6c0.9-3.1,0.7-6.4-0.3-9.4l40-22.8
			c3,3.2,7.3,4.9,11.6,4.9c2.7,0,5.4-0.7,7.9-2.1c3.7-2.1,6.4-5.5,7.5-9.6c1.1-4.1,0.6-8.4-1.5-12.1c-2.1-3.7-5.5-6.4-9.6-7.5
			c-4.1-1.1-8.4-0.6-12.1,1.5s-6.4,5.5-7.5,9.6c-0.7,2.7-0.7,5.5,0,8.2L270.9,256c-1.8-1.6-4-2.8-6.4-3.5c-4.1-1.1-8.4-0.6-12.1,1.5
			c-3.7,2.1-6.4,5.5-7.5,9.6c-1.1,4.1-0.6,8.4,1.5,12.1C249.3,280.9,254.7,283.8,260.3,283.8z M319.1,226.7c0.6-2,1.9-3.8,3.7-4.8
			c1.2-0.7,2.6-1,3.9-1c0.7,0,1.4,0.1,2.1,0.3c2,0.6,3.8,1.9,4.8,3.7c1.1,1.8,1.3,4,0.8,6c-0.6,2-1.9,3.8-3.7,4.8
			c-3.8,2.2-8.7,0.8-10.8-3C318.8,230.9,318.6,228.8,319.1,226.7z M252.6,265.7c0.6-2,1.9-3.8,3.7-4.8c1.2-0.7,2.6-1,3.9-1
			c0.7,0,1.4,0.1,2.1,0.3c2,0.6,3.8,1.9,4.8,3.7s1.3,4,0.8,6c-0.6,2-1.9,3.8-3.7,4.8c-3.8,2.2-8.7,0.8-10.8-3
			C252.3,269.9,252,267.8,252.6,265.7z"/>
		<path class="st6" d="M184.7,274.2c-7.4,0-13.6,5.1-15.4,11.9h-25.3c-1.8-6.9-8-11.9-15.4-11.9c-8.8,0-15.9,7.2-15.9,15.9
			c0,8.8,7.2,15.9,15.9,15.9c7.4,0,13.6-5.1,15.4-11.9h25.3c1.8,6.9,8,11.9,15.4,11.9c8.8,0,15.9-7.2,15.9-15.9
			C200.6,281.4,193.5,274.2,184.7,274.2z M128.5,298.1c-4.4,0-7.9-3.6-7.9-7.9s3.6-7.9,7.9-7.9c4.4,0,7.9,3.6,7.9,7.9
			S132.9,298.1,128.5,298.1z M184.7,298.1c-4.4,0-7.9-3.6-7.9-7.9s3.6-7.9,7.9-7.9c4.4,0,7.9,3.6,7.9,7.9S189.1,298.1,184.7,298.1z"
			/>
		<path class="st6" d="M357.7,133.5c0-1.4-0.8-2.7-2-3.5c-1.2-0.7-2.7-0.7-4,0l-1.9,1.1l-119.7,69.1v-66.5c0-1.4-0.8-2.7-2-3.5
			c-1.2-0.7-2.7-0.7-4,0l-1.9,1.1L96.7,203.8c-1.2,0.7-2,2-2,3.5v113.6c0,2.2,1.8,4,4,4h255.1c1.1,0,2.1-0.4,2.8-1.2
			c0.8-0.8,1.2-1.8,1.2-2.8L357.7,133.5z M102.7,316.8V209.6l119.4-68.9v66.5c0,2.2,1.8,4,4,4h0.2c0.9,0,1.7-0.3,2.4-0.8l121-69.9
			l0.1,176.4H102.7z"/>
	</g>
</g>
<g id="CONSEILLER" class="st0">
	<path class="st7" d="M298.2,319.1H98.6c-2.2,0-4-1.8-4-4V140.3c0-2.2,1.8-4,4-4h199.6c1.3,0,2.5,0.6,3.2,1.6l64,87.4
		c1,1.4,1,3.3,0,4.7l-64,87.4C300.7,318.5,299.5,319.1,298.2,319.1z M102.6,311.1h193.6l61.1-83.4l-61.1-83.4H102.6V311.1z"/>
	<path class="st7" d="M230,207.2l34,4.2c0,0,12.1,9.7-1.3,16.8c0,0,14.1,11.1-3.4,18.1c0,0,5.3,1.1,5.5,7.9c0.1,6.8-5.1,9.1-7.7,9.2
		c-2.6,0.1-6.6,0.1-6.6,0.1s4.7,0.6,4.8,7.1c0.1,6.5-4.2,7.4-5.4,7.4c-1.1,0-33.7,1-41.7-1.3c-8-2.3-16-5.9-18.5-5.8
		c-2.4,0-12.2,0.2-13.5,0.3c-1.3,0-4.4-0.9-4.5-5.3c-0.1-4.4,0-42,0-42c0-1.1,0.2-5.5,4.4-5.6c4.1-0.1,12,3.1,17.8-7.3
		c5.8-10.4,11.2-10.6,12.7-11.6c4.2-2.8,10.7-13.2,11.6-19.7c0.9-6.5,2.2-8.7,4-9.8c1.8-1.1,9.2-2.1,10.9,3.6
		C235,179.1,238.1,189.3,230,207.2z"/>
</g>
<g id="BENCHMARKER" class="st0">
	<g class="st1">
		<path class="st6" d="M142.9,213.7l10.9,30.3h-6.5l-2.1-6.2h-11.8l-2,6.2h-6.6l10.8-30.3H142.9z M135.1,232.7h8.4l-4.2-12.9
			L135.1,232.7z"/>
	</g>
	<g class="st1">
		<path class="st6" d="M218,131.3h12.7c5.6,0,8.5,2.4,8.5,6.8c0,2.7-1,4.5-3.2,5.5c2.8,1.1,4.2,3.2,4.2,6.4c0,5.1-3.4,8.2-9.8,8.2
			H218V131.3z M229.6,141.7c2.7,0,3.9-0.9,3.9-2.9c0-2.1-1.3-2.8-4-2.8h-6.3v5.7H229.6z M229.8,153.4c3,0,4.5-1,4.5-3.5
			c0-2.6-1.4-3.5-4.5-3.5h-6.5v7H229.8z"/>
	</g>
	<g class="st1">
		<path class="st6" d="M314.6,272.1c-8.9,0-14.2-5.8-14.2-16c0-10.3,5.2-16,14.8-16c7.8,0,12.4,4,12.9,10.8h-6.2
			c-0.5-3.4-2.8-5.3-6.7-5.3c-5.5,0-8.4,3.6-8.4,10.4c0,6.7,3,10.3,8.2,10.3c3.8,0,6.3-2,7-5.6h6.1
			C327.6,267.7,322.5,272.1,314.6,272.1z"/>
	</g>
	<g class="st1">
		<path class="st6" d="M173.8,259.6h-67.1c-2.2,0-4,1.8-4,4v61.2c0,2.2,1.8,4,4,4h67.1c2.2,0,4-1.8,4-4v-61.2
			C177.8,261.4,176,259.6,173.8,259.6z M169.8,320.8h-59.1v-53.2h59.1V320.8z"/>
		<path class="st6" d="M264.5,187.8h-70.9c-2.2,0-4,1.8-4,4v133c0,2.2,1.8,4,4,4h70.9c2.2,0,4-1.8,4-4v-133
			C268.5,189.6,266.7,187.8,264.5,187.8z"/>
		<path class="st6" d="M347.6,287.9h-63.7c-2.2,0-4,1.8-4,4v32.9c0,2.2,1.8,4,4,4h63.7c2.2,0,4-1.8,4-4v-32.9
			C351.6,289.7,349.8,287.9,347.6,287.9z M343.6,320.8h-55.7v-24.9h55.7V320.8z"/>
		<path class="st6" d="M229,177.5c18.1,0,32.9-14.8,32.9-32.9c0-18.1-14.8-32.9-32.9-32.9c-18.1,0-32.9,14.8-32.9,32.9
			C196.1,162.8,210.9,177.5,229,177.5z M229,119.7c13.7,0,24.9,11.2,24.9,24.9c0,13.7-11.2,24.9-24.9,24.9
			c-13.7,0-24.9-11.2-24.9-24.9C204.1,130.9,215.3,119.7,229,119.7z"/>
	</g>
</g>
<g id="COOP_x5F_FILIERE_x5F_ELECTRO">
	<g>
		<path class="st6" d="M225.1,266.7c-4.1,0-7.8,1.7-10.4,4.3c-0.2-0.2-0.4-0.3-0.6-0.5l-31.8-19.6v-36.5c6.2-1.8,10.8-7.5,10.8-14.2
			c0-8.2-6.6-14.8-14.8-14.8c-8.2,0-14.8,6.6-14.8,14.8c0,6.8,4.6,12.5,10.8,14.2v38.7c0,1.4,0.7,2.7,1.9,3.4l33.7,20.8
			c0.3,0.2,0.6,0.3,0.9,0.4c-0.3,1.2-0.5,2.4-0.5,3.7c0,8.2,6.6,14.8,14.8,14.8c8.2,0,14.8-6.6,14.8-14.8
			C239.9,273.3,233.2,266.7,225.1,266.7z M171.4,200.1c0-3.8,3.1-6.8,6.8-6.8c3.8,0,6.8,3.1,6.8,6.8c0,3.8-3.1,6.8-6.8,6.8
			C174.4,206.9,171.4,203.9,171.4,200.1z M225.1,288.3c-3.8,0-6.8-3.1-6.8-6.8c0-3.8,3.1-6.8,6.8-6.8c3.8,0,6.8,3.1,6.8,6.8
			C231.9,285.2,228.8,288.3,225.1,288.3z"/>
		<path class="st6" d="M220.9,167c-3.4-2-7.4-2.5-11.2-1.5c-3.8,1-7,3.5-9,6.9c-2,3.4-2.5,7.4-1.5,11.2s3.5,7,6.9,9
			c2.3,1.4,4.9,2,7.4,2c3.8,0,7.5-1.5,10.3-4.2l35.9,20.9c-1.2,6,1.5,12.4,7.1,15.7c0,0,0,0,0,0c2.3,1.4,4.9,2,7.4,2
			c5.1,0,10.1-2.6,12.8-7.4c4.1-7.1,1.7-16.1-5.3-20.2c-6.1-3.6-13.7-2.2-18.3,2.8l-35.5-20.7C229.4,177.2,226.7,170.4,220.9,167z
			 M210,185.7L210,185.7c-1.6-0.9-2.7-2.4-3.2-4.1c-0.5-1.8-0.2-3.6,0.7-5.2c0.9-1.6,2.4-2.7,4.1-3.2c1.8-0.5,3.6-0.2,5.2,0.7
			c3.2,1.9,4.3,6.1,2.5,9.3C217.4,186.4,213.2,187.5,210,185.7z M277.6,208.3c3.2,1.9,4.3,6.1,2.5,9.3c-1.9,3.2-6.1,4.3-9.3,2.5
			c-2.9-1.7-4.1-5.3-2.9-8.3c0-0.1,0.1-0.1,0.2-0.2c0.2-0.3,0.3-0.5,0.4-0.8C270.2,207.5,274.3,206.4,277.6,208.3z"/>
		<path class="st6" d="M259.1,238.9c-2.1,0-4.2,0.5-6,1.3l-13.3-11c-0.7-0.6-1.6-0.9-2.5-0.9h-18.2c-1.8-6.2-7.5-10.8-14.2-10.8
			c-8.2,0-14.8,6.6-14.8,14.8s6.6,14.8,14.8,14.8c6.8,0,12.5-4.6,14.2-10.8h16.8l11,9.1c-1.6,2.4-2.6,5.2-2.6,8.3
			c0,8.2,6.6,14.8,14.8,14.8c8.2,0,14.8-6.6,14.8-14.8C273.9,245.6,267.3,238.9,259.1,238.9z M204.8,239.1c-3.8,0-6.8-3.1-6.8-6.8
			s3.1-6.8,6.8-6.8c3.8,0,6.8,3.1,6.8,6.8S208.6,239.1,204.8,239.1z M259.1,260.6c-3.8,0-6.8-3.1-6.8-6.8c0-3.8,3.1-6.8,6.8-6.8
			c3.8,0,6.8,3.1,6.8,6.8C265.9,257.5,262.9,260.6,259.1,260.6z"/>
		<path class="st6" d="M299.5,183l-71.3-41.1c-1.2-0.7-2.8-0.7-4,0L153,183c-1.2,0.7-2,2-2,3.5v82.3c0,1.4,0.8,2.7,2,3.5l71.3,41.1
			c0.6,0.4,1.3,0.5,2,0.5s1.4-0.2,2-0.5l71.3-41.1c1.2-0.7,2-2,2-3.5v-82.3C301.5,185,300.8,183.7,299.5,183z M293.5,266.4
			l-67.3,38.8L159,266.4v-77.7l67.3-38.8l67.3,38.8V266.4z"/>
		<path class="st6" d="M251.6,315.2c-0.1,0-0.2,0.1-0.2,0.1l-21.9,13.4c-2.7,1.4-8.1,1.9-13.6,2.1c0.3-2-0.2-4.6-2.3-7.8
			c-4.2-6.3-11.5-10.1-19.4-10.1h-9.9c-5.1,0-9.9-1.6-13.6-4.4c-9-6.8-22-1.1-29.8,3.5v-0.1c0-2.2-1.8-4-4-4h-12.7c-2.2,0-4,1.8-4,4
			v60.9c0,2.2,1.8,4,4,4h12.7c2.2,0,4-1.8,4-4v-3.7h31.5c5.2,0,10.5-0.4,15.7-1.2l32.7-5c1.2,0,2.4-0.2,3.7-0.4c3.3-0.5,6.4-2,9-4.5
			l24.9-19.4c0,0,0,0,0,0l13.4-10.5c0,0,0.1,0,0.1-0.1c3.6-3,4.3-8.2,1.6-12C269.2,310.1,264.7,308.3,251.6,315.2z M132.9,368.8
			h-4.7v-52.9h4.7v3.5v45.6V368.8z M266.9,321.9l-38.4,29.9c-0.1,0.1-0.2,0.2-0.3,0.3c-1,1-2.7,2.2-4.8,2.5c-0.1,0-0.3,0-0.4,0.1
			c-0.8,0.2-1.6,0.3-2.4,0.3c-0.2,0-0.4,0-0.6,0l-33,5c-4.8,0.7-9.7,1.1-14.5,1.1h-31.5v-39.6c5.9-4.1,18.8-11.3,25-6.6
			c5.1,3.9,11.7,6,18.5,6h9.9c5.3,0,10,2.5,12.8,6.6c0.7,1.1,0.9,1.7,1,2c-0.7,0.6-3.1,1.1-5.7,1.2c-1,0-1.9,0-2.8,0h-24.6
			c-8.9,0-14.1,4.3-14.1,11.6c0,2.2,1.8,4,4,4s4-1.8,4-4c0-1.2,0-3.6,6.1-3.6h24.6c1.3,0.1,2.6,0.1,3.7,0c0.2,0,0.5,0,0.7,0
			c12.1,0.2,23.4,0.2,29.5-3.1c0.1,0,0.1-0.1,0.2-0.1l21.9-13.4c9.2-4.8,9.9-3.8,11.6-1.5C267.3,321.1,267.2,321.6,266.9,321.9z"/>
		<path class="st6" d="M327.9,79.7h-12.7c-2.2,0-4,1.8-4,4v3.7h-31.5c-5.2,0-10.5,0.4-15.7,1.2l-32.7,5c-1.2,0-2.4,0.2-3.7,0.4
			c-3.3,0.5-6.4,2-9,4.5l-38.4,29.9c0,0-0.1,0-0.1,0.1c-3.6,3-4.3,8.2-1.6,12c4.3,6,8.9,7.8,21.9,0.9c0.1,0,0.2-0.1,0.2-0.1
			l21.9-13.4c2.7-1.4,8.1-1.9,13.6-2.1c-0.3,2,0.2,4.6,2.3,7.8c4.2,6.3,11.5,10.1,19.4,10.1h9.9c5.1,0,9.9,1.6,13.6,4.4
			c3,2.2,6.4,3.1,9.9,3.1c7.1,0,14.6-3.5,19.9-6.6v0.1c0,2.2,1.8,4,4,4h12.7c2.2,0,4-1.8,4-4V83.7C331.9,81.5,330.1,79.7,327.9,79.7
			z M286.3,141.6c-5.1-3.9-11.7-6-18.5-6h-9.9c-5.3,0-10-2.5-12.8-6.6c-0.7-1.1-0.9-1.7-1-2c0.7-0.6,3.1-1.1,5.7-1.2
			c1,0,1.9,0,2.8,0h24.6c8.9,0,14.1-4.3,14.1-11.6c0-2.2-1.8-4-4-4s-4,1.8-4,4c0,1.2,0,3.6-6.1,3.6h-24.6c-1.3-0.1-2.5-0.1-3.7,0
			c-0.2,0-0.5,0-0.7,0c-12.1-0.2-23.5-0.2-29.5,3.1c-0.1,0-0.1,0.1-0.2,0.1l-21.9,13.4c-9.2,4.8-9.9,3.8-11.6,1.5
			c-0.2-0.3-0.2-0.8,0.1-1.1l13.4-10.4l25.1-19.5c0.1-0.1,0.2-0.2,0.3-0.3c1-1,2.7-2.2,4.9-2.5c0.1,0,0.2,0,0.3-0.1
			c0.8-0.2,1.6-0.3,2.4-0.3c0.2,0,0.4,0,0.6,0l33-5c4.8-0.7,9.7-1.1,14.5-1.1h31.5V135C305.4,139.1,292.4,146.2,286.3,141.6z
			 M323.9,140.6h-4.7V137V91.4v-3.7h4.7V140.6z"/>
	</g>
</g>
<g id="COORDONNER" class="st0">
	<path class="st7" d="M345.8,229.9c-13.4,0-24.5,9.9-26.4,22.7h-20.5c-1-12.9-5.5-24.9-12.5-35.1l15.6-10.6c4.9,5.4,12,8.9,19.8,8.9
		c14.7,0,26.7-12,26.7-26.7s-12-26.7-26.7-26.7c-14.7,0-26.7,12-26.7,26.7c0,4,0.9,7.8,2.5,11.2l-16.1,11
		c-7.7-8.9-17.4-15.8-28.5-20.2l6.6-19.3c1.6,0.3,3.3,0.5,5,0.5c14.7,0,26.7-12,26.7-26.7s-12-26.7-26.7-26.7
		c-14.7,0-26.7,12-26.7,26.7c0,10.2,5.7,19.1,14.2,23.6l-6.7,19.5c-6-1.6-12.2-2.5-18.7-2.5c-6.5,0-12.7,0.9-18.7,2.5l-6.9-20
		c8.5-4.5,14.3-13.4,14.3-23.6c0-14.7-12-26.7-26.7-26.7s-26.7,12-26.7,26.7s12,26.7,26.7,26.7c1.6,0,3.2-0.2,4.8-0.4l6.8,19.8
		c-11.1,4.3-20.8,11.3-28.5,20.2l-16.3-11.1c1.7-3.5,2.6-7.4,2.6-11.6c0-14.7-12-26.7-26.7-26.7s-26.7,12-26.7,26.7
		s12,26.7,26.7,26.7c7.7,0,14.6-3.3,19.5-8.5l15.9,10.8c-6.9,10-11.3,21.8-12.4,34.5h-20.6c-1.9-12.8-13-22.7-26.4-22.7
		c-14.7,0-26.7,12-26.7,26.7s12,26.7,26.7,26.7c13.4,0,24.5-9.9,26.4-22.7h20.3c0.9,39.2,33,70.8,72.3,70.8
		c39.2,0,71.2-31.3,72.3-70.2h20.3c1.9,12.8,13,22.7,26.4,22.7c14.7,0,26.7-12,26.7-26.7S360.5,229.9,345.8,229.9z M303.1,189
		c0-10.3,8.4-18.7,18.7-18.7c10.3,0,18.7,8.4,18.7,18.7s-8.4,18.7-18.7,18.7c-5.1,0-9.8-2.1-13.1-5.4c-1.9-1.9-3.4-4.2-4.3-6.7
		C303.6,193.5,303.1,191.3,303.1,189z M245.9,145.5c0-10.3,8.4-18.7,18.7-18.7c10.3,0,18.7,8.4,18.7,18.7s-8.4,18.7-18.7,18.7
		c-0.8,0-1.6-0.1-2.3-0.2c-2.7-0.3-5.3-1.3-7.5-2.7C249.5,158,245.9,152.1,245.9,145.5z M191,163.5c-0.7,0.1-1.4,0.1-2.1,0.1
		c-10.3,0-18.7-8.4-18.7-18.7s8.4-18.7,18.7-18.7s18.7,8.4,18.7,18.7c0,6.7-3.6,12.7-9,15.9C196.3,162.2,193.8,163.1,191,163.5z
		 M131.7,207.2c-10.3,0-18.7-8.4-18.7-18.7s8.4-18.7,18.7-18.7s18.7,8.4,18.7,18.7c0,2.5-0.5,4.8-1.4,7c-1,2.5-2.6,4.8-4.5,6.6
		C141.1,205.2,136.6,207.2,131.7,207.2z M107.7,274.7c-10.3,0-18.7-8.4-18.7-18.7s8.4-18.7,18.7-18.7c8.9,0,16.4,6.3,18.2,14.7
		c0.3,1.3,0.4,2.6,0.4,4s-0.2,2.7-0.4,4C124.1,268.4,116.6,274.7,107.7,274.7z M345.8,275.3c-8.9,0-16.4-6.3-18.2-14.7
		c-0.3-1.3-0.4-2.6-0.4-4s0.2-2.7,0.4-4c1.8-8.4,9.3-14.7,18.2-14.7c10.3,0,18.7,8.4,18.7,18.7S356.1,275.3,345.8,275.3z"/>
</g>
<g id="DEV_x5F_APPRENTISSAGE" class="st0">
	<g class="st1">
		<path class="st6" d="M216.7,132.3h53.6v21.1c-2.1,1.4-3.4,3.8-3.4,6.5c0,2.8,1.4,5.2,3.6,6.6c-0.2,0.3-0.4,0.7-0.5,1.2l-1.6,10.4
			c-0.1,0.8,0.1,1.6,0.6,2.2c0.5,0.6,1.3,1,2.1,1h7.3c0.8,0,1.6-0.4,2.1-1c0.5-0.6,0.8-1.4,0.6-2.2l-1.6-10.4
			c-0.1-0.4-0.2-0.8-0.5-1.2c2.1-1.4,3.6-3.8,3.6-6.6c0-3.1-1.8-5.8-4.4-7.1v-24.5c0-2.2-1.8-4-4-4h-57.6c-2.2,0-4,1.8-4,4
			S214.5,132.3,216.7,132.3z"/>
		<path class="st6" d="M382,151.5h-89.2c-2.2,0-4,1.8-4,4v92.2l-13,7.5v-31.6c0-1.4-0.8-2.7-2-3.5c-1.2-0.7-2.7-0.7-4,0l-26.2,15.1
			c3.4-7.5,5.3-16,5.3-25c0-7.1-1.2-13.9-3.4-20c0.3-0.1,0.5-0.3,0.7-0.4c1-0.8,1.6-1.9,1.6-3.2v-41.6l12.2,0c0,0,0,0,0,0
			c2.2,0,4-1.8,4-4c0-2.2-1.8-4-4-4l-114.2-0.4c0,0,0,0,0,0c-2.2,0-4,1.8-4,4c0,2.2,1.8,4,4,4l12.3,0v41.9c0,1.3,0.6,2.4,1.6,3.2
			c0.1,0.1,0.2,0.1,0.3,0.2c-2.2,6.3-3.4,13.1-3.4,20.3c0,22.6,12.1,42,29.2,49.8c-15.3,3.6-28.5,12-37.7,23.2
			c-4.4-2.5-9.2-4.4-14.3-5.6c12.4-5.8,21.1-19.8,21.1-36.2c0-21.5-15-39-33.6-39c-18.6,0-33.6,17.5-33.6,39
			c0,16.5,8.8,30.6,21.3,36.3C87.8,282.8,72,300.4,72,321.3c0,2.2,1.8,4,4,4h64.4h26.9H203c0.6,0.3,1.2,0.5,1.9,0.5h102.9h31.1H382
			c2.2,0,4-1.8,4-4V155.5C386,153.3,384.2,151.5,382,151.5z M203.6,170.8c-0.4-0.1-0.7-0.2-1.1-0.2c-0.4,0-0.8,0.1-1.1,0.2
			l-35.2,10.4v-3.5v-33l73.7,0.2v33.5v2.8L203.6,170.8z M307.7,317.8h-36.3c-1-28-22.6-51.3-51.5-57.9c4.9-2.3,9.3-5.5,13.2-9.4
			l34.6-20v31.6c0,2.2,1.8,4,4,4h0.1c0.9,0,1.6-0.3,2.3-0.7l60.6-35l0,87.4H307.7z M378,317.8h-35.2l0-94.4c0-1.4-0.8-2.7-2-3.5
			c-1.2-0.7-2.7-0.7-4,0l-40,23.1v-83.6H378V317.8z"/>
		<path class="st6" d="M313.1,196.4c2.2,0,4-1.8,4-4v-15.8c0-2.2-1.8-4-4-4s-4,1.8-4,4v15.8C309.1,194.6,310.9,196.4,313.1,196.4z"
			/>
		<path class="st6" d="M337.4,196.4c2.2,0,4-1.8,4-4v-15.8c0-2.2-1.8-4-4-4s-4,1.8-4,4v15.8C333.4,194.6,335.2,196.4,337.4,196.4z"
			/>
		<path class="st6" d="M361.6,196.4c2.2,0,4-1.8,4-4v-15.8c0-2.2-1.8-4-4-4s-4,1.8-4,4v15.8C357.6,194.6,359.4,196.4,361.6,196.4z"
			/>
		<path class="st6" d="M361.6,247.1c2.2,0,4-1.8,4-4v-15.8c0-2.2-1.8-4-4-4s-4,1.8-4,4v15.8C357.6,245.3,359.4,247.1,361.6,247.1z"
			/>
	</g>
</g>
<g id="ETUDES" class="st0">
	<g class="st1">
		<path class="st6" d="M353.5,336.9H109.2v-16.4l38.5-32.6l19.8,28.1c0.9,1.2,2.3,1.8,3.8,1.7c1.5-0.2,2.7-1.2,3.2-2.6
			c9.3-24.8,24-62.4,30.8-77.8c6.8,16,22.3,48.8,27.9,60.4c0.6,1.3,1.8,2.1,3.2,2.3c1.4,0.1,2.8-0.5,3.6-1.6l108.8-144.2
			c1.3-1.8,1-4.3-0.8-5.6c-1.8-1.3-4.3-1-5.6,0.8L237.6,288.3c-11.2-23.7-26.7-57-27.5-60.9c-0.3-1.9-1.8-3.4-3.7-3.6
			c-3.4-0.3-4.6,1.4-10.7,15.7c-3,7.1-7.1,17.1-12,29.6c-5.5,13.9-10.8,27.9-13.9,36l-18-25.5c-0.6-0.9-1.7-1.5-2.8-1.7
			c-1.1-0.1-2.2,0.2-3.1,0.9L109.2,310v-12.7c5.6-4.4,30.8-25.4,41.2-53c2.4-6.3,4.8-14.5,7.3-23.3c9.5-32.3,22.5-76.5,47.5-76.5
			c16.8,0,26.1,33.9,35.2,66.7c2.7,9.6,5.4,19.6,8.4,29.1c0.7,2.1,2.9,3.3,5,2.6c2.1-0.7,3.3-2.9,2.6-5c-3-9.3-5.7-19.2-8.3-28.8
			c-10.3-37.3-20-72.6-42.9-72.6c-31,0-45,47.5-55.2,82.2c-2.5,8.6-4.9,16.7-7.2,22.7c-7.6,20.4-24.7,37.4-33.7,45.4V114.1
			c0-2.2-1.8-4-4-4s-4,1.8-4,4v226.4c0,1.2,0.5,2.3,1.4,3c0.7,0.8,1.8,1.4,3,1.4h248c2.2,0,4-1.8,4-4S355.7,336.9,353.5,336.9z"/>
		<path class="st6" d="M276.1,282.1c-1.4-1.7-4-1.8-5.6-0.4c-1.7,1.5-1.8,4-0.4,5.6c21.9,25.1,50.7,29.5,67.9,29.5
			c8.6,0,14.3-1.1,15-1.2c2.2-0.4,3.6-2.5,3.2-4.7s-2.5-3.6-4.7-3.2C350.9,307.9,305.8,316.2,276.1,282.1z"/>
	</g>
</g>
<g id="FINANCER" class="st0">
	<g class="st1">
		<path class="st6" d="M286.8,313.5c-9,6.1-24.4,12.2-43.4,12.2c-23.6,0-44.8-9-59.1-26.2c-11.1-11.9-18.3-28.8-21-49.8h-18v-14.5
			h16.3v-4.4c0-4.4,0.3-8.7,0.6-12.8H145v-14.5h19.5c3.5-20.4,11.9-37.3,23.9-49.2c14.6-15.4,33.8-24.2,57.3-24.2
			c17.5,0,30.8,4.9,39,9.3l-5.8,19.2c-7.6-4.4-19.5-8.1-32.6-8.1c-15.7,0-28.8,5.5-38.7,15.7c-8.4,8.7-14.6,21.8-17.2,37.3h81.2V218
			h-83.8c-0.6,3.8-0.6,7.9-0.6,12.2v5h84.4v14.5h-82.4c2.3,16.9,7.9,29.4,16,37.8c10.8,11.6,25.3,16.9,41,16.9
			c15.4,0,28.8-5.5,35.5-9.6L286.8,313.5z"/>
	</g>
</g>
<g id="FORMATIONS" class="st0">
	<path class="st7" d="M292.2,301.4c-11.8,0-21.4-9.6-21.4-21.4c0-11.8,9.6-21.4,21.4-21.4c11.8,0,21.4,9.6,21.4,21.4
		C313.6,291.8,304,301.4,292.2,301.4z"/>
	<path class="st7" d="M347.5,331.2l-16-27.2c-0.7-1.2-1.8-2.1-3-2.6c3.7-6.3,5.9-13.6,5.9-21.4c0-10.2-3.6-19.6-9.7-26.9
		c0.2-0.5,0.4-1.1,0.4-1.7v-86c0-1.1-0.4-2.1-1.2-2.8l-55.7-55.7c-0.8-0.8-1.8-1.2-2.8-1.2h-98.8c-2.2,0-4,1.8-4,4v14.8h-16.7
		c-2.2,0-4,1.8-4,4v14.2h-15.5c-2.2,0-4,1.8-4,4v196.4c0,2.2,1.8,4,4,4h98.1c2.2,0,4-1.8,4-4s-1.8-4-4-4h-94.1V150.8h11.5v174.1
		c0,2.2,1.8,4,4,4h92l-1.3,2.3c-1.1,1.8-1.1,4-0.2,5.9c0.9,1.9,2.7,3.2,4.8,3.4l12.3,1.5l7.3,10c1.2,1.6,3.1,2.6,5.1,2.6
		c0.1,0,0.2,0,0.4,0c2.1-0.1,3.9-1.3,5-3.1l15.9-27c0.5-0.8,0.8-1.8,0.8-2.7c1.4,0.1,2.9,0.2,4.3,0.2c1.3,0,2.6-0.1,3.9-0.2
		c0.1,0.9,0.3,1.9,0.8,2.7l15.9,27c1.1,1.8,2.9,2.9,5,3.1c0.1,0,0.3,0,0.4,0c2,0,3.9-1,5-2.6l7.3-10l12.3-1.5
		c2.1-0.3,3.9-1.5,4.8-3.5C348.7,335.2,348.6,333,347.5,331.2z M315.5,165.6h-50v-50L315.5,165.6z M170.5,113.8h86.9v55.8
		c0,2.2,1.8,4,4,4H317v72.4c-7-5.1-15.6-8.1-24.9-8.1c-23.2,0-42.2,18.9-42.2,42.2c0,7.8,2.1,15,5.8,21.3c-0.6,0.2-1.2,0.5-1.7,0.9
		c-0.2,0-0.3,0-0.5,0h-83.2V113.8z M149.8,320.9V132.6h12.7v173.5c0,2.2,1.8,4,4,4h82.3l-6.4,10.8H149.8z M265.8,350.7v-4
		c0,0,0,0,0,0h0L265.8,350.7z M265.6,345.3l-6.8-9.3c-0.6-0.9-1.6-1.5-2.7-1.6l-11.4-1.4l13.3-22.6c5.4,6.7,12.3,10.8,20.8,12.5
		L265.6,345.3z M258,280c0-18.8,15.3-34.2,34.2-34.2c18.8,0,34.2,15.3,34.2,34.2c0,18.8-15.3,34.2-34.2,34.2
		C273.4,314.2,258,298.8,258,280z M318.2,350.7l0-1l0,0V350.7z M327.9,334.4c-1.1,0.1-2.1,0.7-2.7,1.6l-6.8,9.3l-13.3-22.5
		c8.5-1.7,15.4-5.8,20.8-12.5l13.4,22.6L327.9,334.4z"/>
</g>
<g id="HUB" class="st0">
	<path class="st7" d="M341,254.2c-0.7-1.2-2-2-3.5-2H311c-1.4,0-2.8,0.8-3.5,2l-12.4,21.5h-12.8l-24.5-24.5l10.1-17.4
		c0.7-1.2,0.7-2.8,0-4l-10.8-18.7l18.5-30.6h20l12,20.9c0.7,1.2,2,2,3.5,2h26.4c1.4,0,2.7-0.8,3.5-2l13.2-22.9c0.7-1.2,0.7-2.8,0-4
		L341,151.7c-0.7-1.2-2-2-3.5-2H311c-1.4,0-2.8,0.8-3.5,2l-12,20.9h-22.2c-1.4,0-2.7,0.7-3.4,1.9l-17.4,28.7l-2.8-4.9
		c-0.7-1.2-2-2-3.5-2H232V159h10c1.4,0,2.7-0.8,3.5-2l13.2-22.9c0.7-1.2,0.7-2.8,0-4l-13.2-22.9c-0.7-1.2-2-2-3.5-2h-26.4
		c-1.4,0-2.7,0.8-3.5,2l-13.2,22.9c-0.7,1.2-0.7,2.8,0,4l13.2,22.9c0.7,1.2,2,2,3.5,2h8.4v37.3h-14.2c-1.3,0-2.5,0.7-3.3,1.7
		l-19.3-16.7c-0.7-0.6-1.7-1-2.6-1H159c-1.1,0-2.1,0.5-2.9,1.2l-10.7-18.5c-0.7-1.2-2-2-3.5-2h-26.4c-1.4,0-2.8,0.8-3.5,2
		l-13.2,22.9c-0.7,1.2-0.7,2.8,0,4l13.2,22.9c0.7,1.2,2,2,3.5,2H142c1.4,0,2.7-0.8,3.5-2l13.2-22.9c0.3-0.5,0.5-1,0.5-1.6h24
		l19.3,16.8l-14.3,24.7c-0.7,1.2-0.7,2.8,0,4l13.4,23.2L190,275.7h-22.5L155,254.2c-0.7-1.2-2-2-3.5-2h-26.4c-1.4,0-2.8,0.8-3.5,2
		l-13.2,22.9c-0.7,1.2-0.7,2.8,0,4l13.2,22.9c0.7,1.2,2,2,3.5,2h26.4c1.4,0,2.7-0.8,3.5-2l11.7-20.3c0.2,0,0.4,0.1,0.6,0.1h24.9
		c1.4,0,2.7-0.7,3.4-1.9l10.5-17l0.2,0.4c0.7,1.2,2,2,3.5,2h14.4l0.2,33.2h-9.6c-1.4,0-2.7,0.8-3.5,2l-13.2,22.9
		c-0.7,1.2-0.7,2.8,0,4l13.2,22.9c0.7,1.2,2,2,3.5,2h26.4c1.4,0,2.7-0.8,3.5-2l13.2-22.9c0.7-1.2,0.7-2.8,0-4l-13.2-22.9
		c-0.7-1.2-2-2-3.5-2h-8.8l-0.2-33.2h14c1.4,0,2.8-0.8,3.5-2l4-6.9l24.2,24.2c0.8,0.8,1.8,1.2,2.8,1.2h15.3l11.7,20.2
		c0.7,1.2,2,2,3.5,2h26.4c1.4,0,2.7-0.8,3.5-2l13.2-22.9c0.7-1.2,0.7-2.8,0-4L341,254.2z M313.4,157.7h21.8l10.9,18.9l-10.9,18.9
		h-21.8l-10.9-18.9L313.4,157.7z M207,132.1l10.9-18.9h21.8l10.9,18.9L239.7,151h-21.8L207,132.1z M139.7,206.8h-21.8L107,187.9
		l10.9-18.9h21.8l10.9,18.9L139.7,206.8z M149.3,298h-21.8l-10.9-18.9l10.9-18.9h21.8l10.9,18.9L149.3,298z M249.8,327.3l-10.9,18.9
		h-21.8l-10.9-18.9l10.9-18.9h21.8L249.8,327.3z M335.2,298h-21.8l-10.9-18.9l10.9-18.9h21.8l10.9,18.9L335.2,298z"/>
</g>
<g id="IDENTIFIER" class="st0">
	<g class="st1">
		<path class="st6" d="M208.9,177.3c-0.4-1.2-1.2-2.1-2.4-2.6c-1.1-0.4-2.4-0.4-3.5,0.3l-22.9,13.2c-1.9,1.1-2.6,3.5-1.5,5.5
			c1.1,1.9,3.5,2.6,5.5,1.5l18.5-10.7l23.2,76.1c0.5,1.7,2,2.8,3.8,2.8c0,0,0,0,0,0c1.7,0,3.3-1.1,3.8-2.8l49.3-152.2
			c0.7-2.1-0.5-4.4-2.6-5c-2.1-0.7-4.4,0.5-5,2.6l-45.4,140.1L208.9,177.3z"/>
		<path class="st6" d="M339.2,325.4l-38.1-39.6c13.4-17.7,21.4-39.8,21.4-63.7c0-27.8-10.7-54.1-30.2-74c-1.5-1.6-4.1-1.6-5.7-0.1
			c-1.6,1.5-1.6,4.1-0.1,5.7c18,18.4,27.9,42.7,27.9,68.4c0,31.4-14.9,59.4-38,77.3c-0.4,0.2-0.7,0.4-1,0.7
			c-0.1,0.1-0.1,0.2-0.2,0.2c-16.3,12.3-36.6,19.5-58.5,19.5c-53.9,0-97.8-43.9-97.8-97.8c0-53.9,43.9-97.8,97.8-97.8
			c9.2,0,21.1,2.3,28.6,4.3c2.1,0.6,4.3-0.7,4.9-2.8c0.6-2.1-0.7-4.3-2.8-4.9c-7.9-2.1-20.8-4.6-30.7-4.6
			c-58.3,0-105.8,47.4-105.8,105.8c0,58.3,47.4,105.8,105.8,105.8c22.8,0,43.9-7.2,61.1-19.5l37.9,39.5c2.7,2.8,6.5,4.3,10.3,4.3
			c4.1,0,8.3-1.6,11.7-4.8C344.2,341.1,344.8,331.3,339.2,325.4z M332.2,341.5c-3.3,3.1-8,3.5-10.6,0.8l-37.3-38.8
			c4.2-3.5,8.2-7.3,11.8-11.4l37.4,38.9C336,333.6,335.5,338.4,332.2,341.5z"/>
	</g>
</g>
<g id="INCUBER_x5F_ACCELERER" class="st0">
	<path class="st7" d="M306,104.4c-0.1-1.7-1.1-3.3-2.7-4.1c-1.5-0.8-3.4-0.8-4.9,0.1l-68.7,41c-1.7,1-2.6,2.9-2.4,4.8
		c0.2,1.9,1.5,3.6,3.4,4.2l20,6.7l-84.2,190.6c-1.1,2.4-0.1,5.2,2.2,6.4c0.7,0.4,1.5,0.6,2.3,0.6c1.7,0,3.3-0.8,4.2-2.4l110.3-177.2
		l17.8,13.2c0.9,0.7,1.9,1,3,1c0.8,0,1.6-0.2,2.4-0.6c1.7-0.9,2.7-2.8,2.6-4.7L306,104.4z"/>
	<path class="st7" d="M156.1,197.1l21.8-43.1c0.9-1.9,0.2-4.1-1.7-5.1s-4.1-0.2-5.1,1.7l-21.8,43.1c-0.9,1.9-0.2,4.1,1.7,5.1
		C152.9,199.7,155.1,199,156.1,197.1z"/>
	<path class="st7" d="M160.2,229.3l23.4-46.3c0.9-1.9,0.2-4.1-1.7-5.1s-4.1-0.2-5.1,1.7l-23.4,46.3c-0.9,1.9-0.2,4.1,1.7,5.1
		C157,231.9,159.3,231.1,160.2,229.3z"/>
	<path class="st7" d="M167.8,254.6l23.4-46.3c0.9-1.9,0.2-4.1-1.7-5.1c-1.9-0.9-4.1-0.2-5.1,1.7l-23.4,46.3
		c-0.9,1.9-0.2,4.1,1.7,5.1C164.6,257.2,166.9,256.5,167.8,254.6z"/>
</g>
<g id="LIVING_x5F_LAB" class="st0">
	<g class="st1">
		<path class="st6" d="M282.4,242c0-2.1-0.5-3.8-1.4-5c-0.6-0.8-1.9-1.8-3.8-1.8c-3.8,0.1-7,0.9-10,2.4c-2.9-7.1-7.6-10.6-14-10.6
			l0,0c-34.7,0.1-59.4,0.1-94.1,0.1l-26.3,0c-0.5,0-1,0-1.5,0.1c-5.3,0.3-9.6,3.9-12.4,10.4c0,0,0,0.1,0,0.1c-3-1.5-6.3-2.3-9.8-2.4
			c-1.6,0-2.9,0.6-3.9,1.8c-1,1.2-1.5,3-1.5,5.2c0,3.2,0,6.5,0,9.7v2.2c0,4.8,0,9.7,0,14.5c0,11,0,22,0,32.9
			c0,5.8,1.6,11.2,4.6,15.2c2.4,3.2,5.6,5.2,9,5.8c0,0.2,0,0.4,0,0.6v0.8c0,3.5,0,7.1,0,10.6c0,3.5,1.8,6.1,4.3,6.5
			c0.2,0,0.4,0,0.6,0.1c1.2,0,2.4-0.5,3.3-1.5c0.9-1,1.5-2.5,1.6-4.1c0.1-2.2,0-12.7,0-12.7l132.3-0.1v2.1c0,3.1,0,6.1,0,9.2
			c0,2.4,0.7,3.9,1.2,4.7c0.9,1.3,2.2,2.1,3.6,2.1l0,0c2.8,0,4.7-2.8,4.8-6.8c0-2.5,0-5,0-7.5l0-4.1c8-1.3,13.5-9.4,13.5-20.4
			c0.1-15,0-30,0-45L282.4,242z M131.6,235c0.4,0,0.8,0,1.2,0l26.3,0c34.7,0,59.4,0,94.1-0.1l0,0c3.8,0,6.4,1.7,8.3,5.6
			c-7,8-13.6,21.4-14.4,34.1L139,274.4c-0.1-1.3-0.1-2.6-0.2-3.9c-0.8-8.4-3.4-15.8-7.6-21.9c-1-1.4-3-3.5-5.5-6
			c-0.5-0.5-1-1-1.3-1.4C126,237.2,128.4,235.2,131.6,235"/>
	</g>
	<path class="st7" d="M346.9,114.5h-63.4c-2,0-3.7,1.6-3.7,3.7v48.7c0,2,1.6,3.7,3.7,3.7h27.7V333h-17.1c-2.2,0-4,1.8-4,4s1.8,4,4,4
		h42.3c2.2,0,4-1.8,4-4s-1.8-4-4-4h-17.1V170.6h27.7c2,0,3.7-1.6,3.7-3.7v-48.7C350.6,116.1,349,114.5,346.9,114.5z"/>
	<g class="st1">
		<g>
			<g>
				<path class="st6" d="M236.5,209.4c-1.9,1.9-5.1,1.9-7.1,0c-20.1-20.1-52.8-20.1-72.8,0c-1.9,1.9-5.1,1.9-7.1,0
					c-1.9-1.9-1.9-5.1,0-7.1c24-24,63-24,86.9,0C238.5,204.3,238.5,207.4,236.5,209.4z"/>
			</g>
		</g>
		<g>
			<g>
				<path class="st6" d="M254.1,191.7c-1.9,1.9-5.1,1.9-7.1,0c-29.8-29.8-78.3-29.8-108.1,0c-1.9,1.9-5.1,1.9-7.1,0
					c-1.9-1.9-1.9-5.1,0-7.1c33.7-33.7,88.5-33.7,122.2,0C256.1,186.6,256.1,189.8,254.1,191.7z"/>
			</g>
		</g>
		<g>
			<g>
				<path class="st6" d="M270.9,175c-1.9,1.9-5.1,1.9-7.1,0c-39-39-102.6-39-141.6,0c-1.9,1.9-5.1,1.9-7.1,0c-1.9-1.9-1.9-5.1,0-7.1
					C158.1,125,228,125,270.9,168C272.8,169.9,272.8,173.1,270.9,175z"/>
			</g>
		</g>
	</g>
</g>
<g id="MARKETPLACE" class="st0">
	<g class="st1">
		<path class="st6" d="M234.2,229c-5.7,0-11-1.9-14.9-6.1c-3-3.1-5-7.6-5.8-13.7h29.9v-5.3h-30.6v-1.8c0-1.6,0-3.1,0.2-4.4h30.4
			v-5.3H214c1-5.6,3.2-10.3,6.2-13.5c3.6-3.7,8.3-5.7,14-5.7c4.8,0,9.1,1.4,11.8,3l2.1-7c-3-1.6-7.8-3.4-14.2-3.4
			c-8.6,0-15.5,3.2-20.8,8.8c-4.3,4.3-7.4,10.5-8.7,17.8h-7.1v5.3h6.2c-0.1,1.5-0.2,3.1-0.2,4.6v1.6h-5.9v5.3h6.5
			c1,7.6,3.6,13.7,7.6,18.1c5.2,6.2,12.9,9.5,21.4,9.5c6.9,0,12.5-2.2,15.7-4.4l-1.8-6.8C244.7,227,239.8,229,234.2,229z"/>
		<path class="st6" d="M352.9,179.3c-11.8,0-21.6,8.6-23.5,19.8h-25.7c-0.8-41.1-34.5-74.3-75.8-74.3c-41.1,0-74.7,32.9-75.8,73.8
			h-25.7c-1.9-11.3-11.7-19.8-23.5-19.8c-13.2,0-23.8,10.7-23.8,23.8s10.7,23.8,23.8,23.8c11.8,0,21.6-8.6,23.5-19.8h25.9
			c1.1,13.7,5.8,26.4,13.2,37.1l-20,13.6c-4.4-4.7-10.6-7.6-17.5-7.6c-13.2,0-23.8,10.7-23.8,23.8s10.7,23.8,23.8,23.8
			s23.8-10.7,23.8-23.8c0-3.4-0.7-6.6-2-9.5l20.5-14c8.1,9.4,18.4,16.8,30.2,21.3l-8.4,24.4c-1.3-0.2-2.7-0.3-4-0.3
			c-13.2,0-23.8,10.7-23.8,23.8s10.7,23.8,23.8,23.8s23.8-10.7,23.8-23.8c0-9-4.9-16.7-12.2-20.8l8.4-24.6
			c6.3,1.7,12.9,2.6,19.7,2.6c6.8,0,13.4-0.9,19.7-2.6l8.6,25.1c-7.4,4-12.4,11.9-12.4,20.9c0,13.2,10.7,23.8,23.8,23.8
			s23.8-10.7,23.8-23.8S280.8,296,267.7,296c-1.3,0-2.6,0.1-3.8,0.3l-8.6-25c11.7-4.6,22.1-12,30.2-21.3l20.7,14.1
			c-1.4,3-2.2,6.4-2.2,9.9c0,13.2,10.7,23.8,23.8,23.8s23.8-10.7,23.8-23.8s-10.7-23.8-23.8-23.8c-6.7,0-12.8,2.8-17.1,7.3
			l-20.3-13.9c7.3-10.6,12-23.1,13.1-36.5h26c1.9,11.3,11.7,19.8,23.5,19.8c13.2,0,23.8-10.7,23.8-23.8S366.1,179.3,352.9,179.3z
			 M227.9,268.5c-37.4,0-67.8-30.4-67.8-67.8s30.4-67.8,67.8-67.8s67.8,30.4,67.8,67.8S265.3,268.5,227.9,268.5z"/>
	</g>
</g>
<g id="ORGANISER_x5F_EVENEMENT" class="st0">
	<g class="st1">
		<path class="st6" d="M275.7,170c0-2.2-1.8-4-4-4H191c-2.2,0-4,1.8-4,4v8.1h-58.7c0,0,0,0,0,0h-0.1c-0.1,0-0.2,0-0.2,0
			c-0.2,0-0.3,0-0.5,0.1c-0.1,0-0.2,0.1-0.4,0.1c-0.1,0-0.3,0.1-0.4,0.1c-0.1,0-0.2,0.1-0.3,0.2c-0.1,0.1-0.2,0.1-0.3,0.2
			c-0.1,0.1-0.2,0.2-0.3,0.2c-0.1,0.1-0.2,0.2-0.3,0.2c-0.1,0.1-0.2,0.2-0.3,0.4c-0.1,0.1-0.1,0.1-0.2,0.2c0,0,0,0,0,0
			c-0.1,0.2-0.2,0.3-0.3,0.5c0,0.1-0.1,0.1-0.1,0.2c0,0.1-0.1,0.2-0.1,0.4c0,0.1-0.1,0.3-0.1,0.4c0,0.1,0,0.1,0,0.2
			c0,0.2-0.1,0.4-0.1,0.6c0,0,0,0,0,0c0,0.1,0,0.2,0,0.3c0,0.2,0,0.3,0.1,0.5c0,0.1,0.1,0.2,0.1,0.4c0,0.1,0.1,0.3,0.1,0.4
			c0,0.1,0.1,0.2,0.2,0.3c0.1,0.1,0.1,0.2,0.2,0.3c0.1,0.1,0.2,0.2,0.2,0.3c0.1,0.1,0.2,0.2,0.2,0.3c0.1,0.1,0.2,0.2,0.4,0.3
			c0.1,0.1,0.1,0.1,0.2,0.2l24.9,17.3L126,219.7c-1.4,1-2.1,2.8-1.6,4.5c0.5,1.7,2.1,2.8,3.8,2.8l85.2,0.4c0,0,0,0,0,0
			c1.1,0,2.1-0.4,2.8-1.2c0.8-0.8,1.2-1.8,1.2-2.8v-8.1h50.3v121.2c0,2.2,1.8,4,4,4s4-1.8,4-4V196.9c0-0.2,0-0.4-0.1-0.5V170z
			 M209.4,219.3l-68.3-0.3l19-13c1.1-0.7,1.7-2,1.7-3.3c0-1.3-0.6-2.6-1.7-3.3L141,186.2h46v25.1c0,2.2,1.8,4,4,4h18.5V219.3z
			 M267.7,207.2H195V174h72.7V207.2z"/>
		<path class="st6" d="M143.1,140.9c0.8,0.8,1.8,1.2,2.8,1.2s2-0.4,2.8-1.2c1.6-1.6,1.6-4.1,0-5.7l-32.5-32.5
			c-1.6-1.6-4.1-1.6-5.7,0c-1.6,1.6-1.6,4.1,0,5.7L143.1,140.9z"/>
		<path class="st6" d="M311,311.1c-1.6-1.6-4.1-1.6-5.7,0c-1.6,1.6-1.6,4.1,0,5.7l32.5,32.5c0.8,0.8,1.8,1.2,2.8,1.2s2-0.4,2.8-1.2
			c1.6-1.6,1.6-4.1,0-5.7L311,311.1z"/>
		<path class="st6" d="M308.2,142.1c1,0,2-0.4,2.8-1.2l32.5-32.5c1.6-1.6,1.6-4.1,0-5.7c-1.6-1.6-4.1-1.6-5.7,0l-32.5,32.5
			c-1.6,1.6-1.6,4.1,0,5.7C306.1,141.7,307.1,142.1,308.2,142.1z"/>
		<path class="st6" d="M143.8,311.1l-32.5,32.5c-1.6,1.6-1.6,4.1,0,5.7c0.8,0.8,1.8,1.2,2.8,1.2s2-0.4,2.8-1.2l32.5-32.5
			c1.6-1.6,1.6-4.1,0-5.7C147.9,309.5,145.3,309.5,143.8,311.1z"/>
	</g>
</g>
<g id="PROMOTION" class="st0">
	<g class="st1">
		<path class="st6" d="M97.1,250.9c-3.2,1.4-4.7,5.2-3.3,8.5l17,38.7c1.4,3.2,5.2,4.7,8.5,3.3l7.7-3.4l-22.2-50.5L97.1,250.9z"/>
		<path class="st6" d="M203.7,272.4L203.7,272.4l-27.9-63.6l-59.3,26c-4.2,1.8-6,7-4,11.6l20.7,47.1c2,4.5,7,6.7,11.2,4.9l38.1-16.8
			l37.8,49.3c0.6,0.8,1.9,1,2.7,0.4l14.7-11.3c0.8-0.6,1-1.9,0.4-2.7L203.7,272.4z"/>
		<path class="st6" d="M254.2,133.6c-0.9-2-3.3-2.9-5.3-2c-2,0.9-2.9,3.3-2,5.3l1.7,3.8c-0.6,0.1-1.2,0.2-1.8,0.5l-57.2,58.1
			c-1.5,1.7-4.4,5.7-3,8.9l25,56.9c1.4,3.2,4.3,3.9,8.4,3.7l83.7-2.2c0.6-0.3,1.1-0.6,1.6-1l1.6,3.6c0.7,1.5,2.1,2.3,3.6,2.3
			c0.6,0,1.1-0.1,1.7-0.4c2-0.9,2.9-3.3,2-5.3L254.2,133.6z"/>
		<path class="st6" d="M332.5,185.3c0.5,0,1-0.1,1.5-0.3l23.8-9.9c2-0.8,3-3.2,2.2-5.2c-0.8-2-3.2-3-5.2-2.2l-23.8,9.9
			c-2,0.8-3,3.2-2.2,5.2C329.4,184.4,330.9,185.3,332.5,185.3z"/>
		<path class="st6" d="M358.4,227.5l-23.9-9.8c-2-0.8-4.4,0.1-5.2,2.2c-0.8,2,0.1,4.4,2.2,5.2l23.9,9.8c0.5,0.2,1,0.3,1.5,0.3
			c1.6,0,3.1-0.9,3.7-2.5C361.4,230.7,360.4,228.3,358.4,227.5z"/>
		<path class="st6" d="M316,125.7c-2-0.8-4.4,0.1-5.2,2.2l-9.8,23.9c-0.8,2,0.1,4.4,2.2,5.2c0.5,0.2,1,0.3,1.5,0.3
			c1.6,0,3.1-0.9,3.7-2.5l9.8-23.9C319,128.9,318,126.6,316,125.7z"/>
	</g>
</g>
<g id="RESOUDRE_x5F_PROBLEMES" class="st0">
	<g class="st1">
		<path class="st6" d="M369.6,177.3l-27.8-17c-0.7-0.4-1.5-0.4-2.2,0c-0.6,0.4-1,1.2-0.9,2l1.7,10.7h-44.1c-1.6,0-3.1,0.6-4.3,1.8
			l-73.9,75.1c-1.3-0.7-2.6-1.2-4.1-1.6v-26.2c5.6-1.8,9.7-7,9.7-13.2c0-7.6-6.2-13.8-13.8-13.8c-6.2,0-11.5,4.1-13.2,9.8h-72.4
			L102.1,187v-12.4c5.7-1.7,9.8-7,9.8-13.2c0-7.6-6.2-13.8-13.8-13.8c-7.6,0-13.8,6.2-13.8,13.8c0,6.2,4.1,11.5,9.8,13.2V189
			c0,1.2,0.5,2.4,1.5,3.1l24.9,20c0.7,0.6,1.6,0.9,2.5,0.9h73.8c1.3,4.4,4.9,7.9,9.3,9.2v26.1c-4.4,1-8.1,3.8-10.5,7.5l-16.4-13.2
			c0.4-1.3,0.6-2.6,0.6-3.9c0-7.6-6.2-13.8-13.8-13.8c-7.6,0-13.8,6.2-13.8,13.8c0,6.2,4.1,11.5,9.8,13.2v57.4
			c-5.7,1.7-9.8,7-9.8,13.2c0,7.6,6.2,13.8,13.8,13.8c7.6,0,13.8-6.2,13.8-13.8c0-6.2-4.1-11.5-9.8-13.2v-57.4
			c1.8-0.5,3.4-1.4,4.8-2.6l18.2,14.7c0,0.3,0,0.6,0,0.9c0,9.4,7.6,17,17,17c9.4,0,17-7.6,17-17c0-2-0.4-3.9-1-5.7l72.9-74.1h41.6
			l-1.7,10.7c-0.1,0.8,0.2,1.5,0.9,2c0.3,0.2,0.7,0.3,1.1,0.3c0.4,0,0.7-0.1,1-0.3l27.8-17c0.6-0.4,1-1,1-1.7
			C370.6,178.3,370.2,177.7,369.6,177.3z M92.3,161.5c0-3.2,2.6-5.8,5.8-5.8c3.2,0,5.8,2.6,5.8,5.8c0,3.2-2.6,5.8-5.8,5.8
			C94.9,167.3,92.3,164.7,92.3,161.5z M171.9,322.5c0,3.2-2.6,5.8-5.8,5.8s-5.8-2.6-5.8-5.8c0-3.2,2.6-5.8,5.8-5.8
			S171.9,319.3,171.9,322.5z M166.1,244.4c-3.2,0-5.8-2.6-5.8-5.8c0-3.2,2.6-5.8,5.8-5.8s5.8,2.6,5.8,5.8
			C171.9,241.8,169.3,244.4,166.1,244.4z M204.2,209c0-3.2,2.6-5.8,5.8-5.8c3.2,0,5.8,2.6,5.8,5.8c0,3.2-2.6,5.8-5.8,5.8
			C206.8,214.8,204.2,212.2,204.2,209z"/>
		<path class="st6" d="M294.5,265.1v-15.4c5.7-1.7,9.8-7,9.8-13.2c0-7.6-6.2-13.8-13.8-13.8s-13.8,6.2-13.8,13.8
			c0,6.2,4.1,11.5,9.8,13.2v13.8l-53,53.4h-14c-2-5.2-7-9-12.9-9c-7.6,0-13.8,6.2-13.8,13.8c0,7.6,6.2,13.8,13.8,13.8
			c6.5,0,12-4.5,13.4-10.6h15.2c1.1,0,2.1-0.4,2.8-1.2l55.3-55.8C294.1,267.2,294.5,266.2,294.5,265.1z M206.6,327.5
			c-3.2,0-5.8-2.6-5.8-5.8c0-3.2,2.6-5.8,5.8-5.8c3.2,0,5.8,2.6,5.8,5.8C212.4,324.9,209.8,327.5,206.6,327.5z M284.7,236.5
			c0-3.2,2.6-5.8,5.8-5.8s5.8,2.6,5.8,5.8c0,3.2-2.6,5.8-5.8,5.8S284.7,239.7,284.7,236.5z"/>
		<path class="st6" d="M332.2,209.6c-7.6,0-13.8,6.2-13.8,13.8c0,6.2,4.1,11.5,9.8,13.2v42.1l-45.9,46.9c-2-1.1-4.3-1.8-6.8-1.8
			c-7.6,0-13.8,6.2-13.8,13.8c0,7.6,6.2,13.8,13.8,13.8s13.8-6.2,13.8-13.8c0-2.2-0.5-4.3-1.5-6.2l47.2-48.2
			c0.7-0.7,1.1-1.8,1.1-2.8v-43.7c5.7-1.7,9.8-7,9.8-13.2C346.1,215.8,339.9,209.6,332.2,209.6z M275.6,343.3
			c-3.2,0-5.8-2.6-5.8-5.8c0-3.2,2.6-5.8,5.8-5.8s5.8,2.6,5.8,5.8C281.4,340.7,278.8,343.3,275.6,343.3z M332.2,229.2
			c-3.2,0-5.8-2.6-5.8-5.8c0-3.2,2.6-5.8,5.8-5.8s5.8,2.6,5.8,5.8C338.1,226.6,335.4,229.2,332.2,229.2z"/>
		<path class="st6" d="M144.8,182.2c6.2,0,11.5-4.1,13.2-9.8h84.9c1.7,5.7,7,9.8,13.2,9.8c7.6,0,13.8-6.2,13.8-13.8
			c0-7.6-6.2-13.8-13.8-13.8c-6.2,0-11.5,4.1-13.2,9.8H158c-1.7-5.7-7-9.8-13.2-9.8c-7.6,0-13.8,6.2-13.8,13.8
			C131,176,137.1,182.2,144.8,182.2z M256.1,162.6c3.2,0,5.8,2.6,5.8,5.8s-2.6,5.8-5.8,5.8c-3.2,0-5.8-2.6-5.8-5.8
			S252.9,162.6,256.1,162.6z M144.8,162.6c3.2,0,5.8,2.6,5.8,5.8s-2.6,5.8-5.8,5.8c-3.2,0-5.8-2.6-5.8-5.8S141.6,162.6,144.8,162.6z
			"/>
		<path class="st6" d="M194.5,144.2c6.2,0,11.5-4.1,13.2-9.8h84.9c1.7,5.7,7,9.8,13.2,9.8c7.6,0,13.8-6.2,13.8-13.8
			c0-7.6-6.2-13.8-13.8-13.8c-6.2,0-11.5,4.1-13.2,9.8h-84.9c-1.7-5.7-7-9.8-13.2-9.8c-7.6,0-13.8,6.2-13.8,13.8
			C180.7,138,186.9,144.2,194.5,144.2z M305.9,124.6c3.2,0,5.8,2.6,5.8,5.8c0,3.2-2.6,5.8-5.8,5.8c-3.2,0-5.8-2.6-5.8-5.8
			C300,127.2,302.7,124.6,305.9,124.6z M194.5,124.6c3.2,0,5.8,2.6,5.8,5.8c0,3.2-2.6,5.8-5.8,5.8c-3.2,0-5.8-2.6-5.8-5.8
			C188.7,127.2,191.3,124.6,194.5,124.6z"/>
		<path class="st6" d="M133.8,238c0-7.6-6.2-13.8-13.8-13.8c-7.6,0-13.8,6.2-13.8,13.8c0,6.2,4.1,11.5,9.8,13.2v19.7
			c-5.7,1.7-9.8,7-9.8,13.2c0,7.6,6.2,13.8,13.8,13.8c7.6,0,13.8-6.2,13.8-13.8c0-6.2-4.1-11.5-9.8-13.2v-19.7
			C129.6,249.5,133.8,244.3,133.8,238z M125.8,284.2c0,3.2-2.6,5.8-5.8,5.8s-5.8-2.6-5.8-5.8c0-3.2,2.6-5.8,5.8-5.8
			S125.8,280.9,125.8,284.2z M120,243.8c-3.2,0-5.8-2.6-5.8-5.8c0-3.2,2.6-5.8,5.8-5.8s5.8,2.6,5.8,5.8
			C125.8,241.2,123.2,243.8,120,243.8z"/>
	</g>
</g>
<g id="SHOWROOM" class="st0">
	<path class="st7" d="M322.2,136.2c-10.9-16-27.2-22.9-35.9-25.5c-13-4-25.5-3.8-31.7,0.5c-0.1,0-0.1,0.1-0.2,0.1l-2.4,1.8
		c-0.1,0-0.1,0.1-0.2,0.1l-47.1,40.3c-0.1,0.1-0.2,0.2-0.3,0.3l-50.3-32.3c-1.4-0.9-3.2-0.8-4.5,0.1c-1.3,1-1.9,2.6-1.5,4.2
		l5.8,22.4L120.3,133c-1.5-0.7-3.2-0.4-4.4,0.7c-1.2,1.1-1.6,2.8-1.1,4.3l28.5,81.5c0.3,0.9,1,1.7,1.8,2.2l39.4,21.7l9.6,43.7
		c0.2,1,0.8,1.8,1.6,2.4l67.5,47.8c0.7,0.5,1.5,0.7,2.3,0.7c0.8,0,1.5-0.2,2.2-0.7c1.4-0.9,2-2.6,1.7-4.2l-4.6-20.4l13.7,20.7
		c0.8,1.1,2,1.8,3.3,1.8c0.5,0,1-0.1,1.5-0.3c1.8-0.7,2.8-2.6,2.4-4.5l-15.7-78l32.8-27.3v123.1c0,2.2,1.8,4,4,4s4-1.8,4-4V220.1
		c0-0.5-0.1-1-0.3-1.5l5-4.2c0.1-0.1,0.2-0.2,0.3-0.3l5.4-5.6C332.9,200,340.3,162.8,322.2,136.2z M225.7,177.1l5.1,21.5L163.4,153
		l-5-19.2L225.7,177.1z M150.4,215.3l-24.9-71.2l31.1,14.2l24.5,73.8L150.4,215.3z M191.5,238.2l-24.2-72.9l20.7,14
		c-2.1,11.2,4.3,30.8,17.5,50.1c13.1,19.3,29,32.5,40.2,34.6l0.8,3.5c0,0,0,0,0,0l3.4,14.8L191.5,238.2z M201.7,283.8l-7.3-33.4
		l58.2,44.2l6.8,30.1L201.7,283.8z M274,311.9l-14.1-21.2l-16.3-72.2l14,12L274,311.9z M316.5,202.1c-0.2,0.2-0.4,0.3-0.6,0.5
		l-5.6,5.8l-42,35l-3.2-15.9c-0.2-0.9-0.6-1.7-1.3-2.2l-23.2-19.9l-7.5-31.7c-0.2-1-0.9-1.9-1.7-2.4l-20-12.8l45.6-39l2.2-1.7
		c8-5.3,40.6-0.3,56.4,23C331.7,164.3,324.4,196.8,316.5,202.1z"/>
	<g class="st1">
		<path class="st6" d="M173.5,260.9l-32.7,31.9c-1.6,1.5-4.1,1.5-5.7-0.1c-1.5-1.6-1.5-4.1,0.1-5.7l32.7-31.9
			c1.6-1.5,4.1-1.5,5.7,0.1S175.1,259.4,173.5,260.9z"/>
		<path class="st6" d="M169.8,288.6l-35.1,34.3c-1.6,1.5-4.1,1.5-5.7-0.1c-1.5-1.6-1.5-4.1,0.1-5.7l35.1-34.3
			c1.6-1.5,4.1-1.5,5.7,0.1C171.4,284.5,171.4,287.1,169.8,288.6z"/>
		<path class="st6" d="M168.9,313.6l-35.1,34.3c-1.6,1.5-4.1,1.5-5.7-0.1c-1.5-1.6-1.5-4.1,0.1-5.7l35.1-34.3
			c1.6-1.5,4.1-1.5,5.7,0.1C170.5,309.5,170.5,312.1,168.9,313.6z"/>
	</g>
</g>
<g id="TESTER" class="st0">
	<g class="st1">
		<path class="st6" d="M300.4,139.1h-20.4V137c0-2-1.6-3.5-3.5-3.5h-22.6l-14.6-21.6c-5.1-7.6-10.1-8.8-13.6-8.4
			c-0.2,0-0.5,0-0.7,0.1c-3.7,0.7-7.2,3.4-10.5,8.3l-14.6,21.6h-22.6c-2,0-3.5,1.6-3.5,3.5v2.1h-20.4c-2.2,0-4,1.8-4,4v205.2
			c0,2.2,1.8,4,4,4h147c2.2,0,4-1.8,4-4V143.1C304.4,140.9,302.6,139.1,300.4,139.1z M221.1,116.3c2.3-3.4,4-4.4,4.9-4.8
			c0.2,0,0.4,0,0.6-0.1c1.5-0.3,3.7,1.5,6,4.9l11.6,17.2h-34.7L221.1,116.3z M296.4,344.3h-139V147.1h16.4v4.5c0,2,1.6,3.5,3.5,3.5
			h99.2c2,0,3.5-1.6,3.5-3.5v-4.5h16.4V344.3z"/>
		<path class="st6" d="M258.6,242.5c-2.2,0-4,1.8-4,4v28.6h-56.2v-56.2h37.9c2.2,0,4-1.8,4-4s-1.8-4-4-4h-41.9c-2.2,0-4,1.8-4,4
			v64.2c0,2.2,1.8,4,4,4h64.2c2.2,0,4-1.8,4-4v-32.6C262.6,244.3,260.8,242.5,258.6,242.5z"/>
	</g>
	<g class="st1">
		<g>
			<path class="st6" d="M226.7,264.8c-1.4,0-2.7-0.5-3.7-1.4l-16.5-14.5c-2.4-2.1-2.6-5.6-0.5-8c2.1-2.4,5.6-2.6,8-0.5l12,10.5
				l26.8-34.8c1.9-2.5,5.5-2.9,7.9-1c2.5,1.9,2.9,5.5,1,7.9l-30.4,39.6c-1,1.2-2.4,2-3.9,2.2C227.1,264.8,226.9,264.8,226.7,264.8z"
				/>
		</g>
	</g>
</g>
<g id="VALORISER_x5F_PARCOURS" class="st0">
	<g class="st1">
		<path class="st6" d="M103,242.8c0.1,0.1,0.2,0.3,0.3,0.5C103.2,243.2,103.1,243,103,242.8z"/>
		<path class="st6" d="M102.9,242.7c0,0,0.1,0.1,0.1,0.1C103,242.8,102.9,242.8,102.9,242.7z"/>
		<path class="st6" d="M350.4,271.1l-13.1-27.7c0,0,0-0.1,0-0.1c-0.1-0.2-0.2-0.3-0.3-0.5c0,0-0.1-0.1-0.1-0.1
			c-0.1-0.2-0.2-0.3-0.4-0.5l-41.8-41.5c-1-1-2.6-1.4-4-1L253,211.2c1.2-4.4,3.6-8.6,6.5-13.9c1.9-3.4,4-7.2,6.1-11.6
			c6.3-13.1,7-26.7,2.2-40.5c-6.9-19.7-22.1-22-32.9-21.9c-14.1,0-29.1,9.2-34.1,20.9c-4.3,10.1-3.2,32.5,4.8,46.3
			c5.7,9.9,8,15.9,9,18.5c0.2,0.5,0.3,0.8,0.4,1.1c0.1,1.6,0.1,6.4,0.1,12.6l-85.2,25.8c0,0,0,0,0,0c-0.1,0-0.2,0.1-0.2,0.1
			c-0.1,0-0.2,0.1-0.2,0.1c-0.1,0-0.1,0.1-0.2,0.1c-0.1,0-0.2,0.1-0.2,0.1c-0.1,0-0.1,0.1-0.2,0.1c-0.1,0.1-0.1,0.1-0.2,0.2
			c-0.1,0-0.1,0.1-0.2,0.2c-0.1,0.1-0.1,0.1-0.2,0.2c-0.1,0.1-0.1,0.1-0.2,0.2c-0.1,0.1-0.1,0.1-0.2,0.2c0,0.1-0.1,0.1-0.1,0.2
			c0,0.1-0.1,0.1-0.1,0.2c0,0.1-0.1,0.1-0.1,0.2c0,0.1-0.1,0.2-0.1,0.2c0,0,0,0,0,0l-9.1,23.2c-0.5,1.4-0.3,3,0.7,4.1l47.3,54.2
			c0,0,0,0,0,0c0.2,0.2,0.3,0.3,0.5,0.5c0.1,0.1,0.1,0.1,0.2,0.2c0.1,0.1,0.3,0.2,0.4,0.3c0.1,0,0.2,0.1,0.3,0.1
			c0.2,0.1,0.3,0.1,0.5,0.2c0.1,0,0.2,0,0.2,0.1c0.3,0,0.5,0.1,0.8,0.1c0.2,0,0.4,0,0.6,0c0,0,0.1,0,0.1,0c0.2,0,0.3-0.1,0.5-0.1
			c0,0,0,0,0,0L348,276.7c1.1-0.4,2-1.2,2.4-2.2C350.9,273.4,350.9,272.2,350.4,271.1z M212.5,186.5c-7-12.2-7.5-31.8-4.3-39.1
			c3.8-8.8,15.8-16,26.8-16.1c0,0,0.1,0,0.1,0c13.8,0,21.2,4.8,25.3,16.6c4.2,11.9,3.6,23.1-1.9,34.3c-2,4.2-4.1,7.9-5.9,11.2
			c-4,7.3-7.3,13.2-8.2,20.4c-0.1,1.1-0.2,2.3-0.2,3.5v5v19.9c-3.2,1.9-11.3,5.3-21.3,0.3c0.1-5.4,0.1-10,0.2-13.9
			c0-3.3,0-6,0.1-8.4c0-11-0.3-12.4-0.8-13.3c-0.1-0.2-0.2-0.5-0.3-0.8C221,203.4,218.5,197,212.5,186.5z M215,231.1
			c0,4.5-0.1,9.2-0.2,13.7c0,1.4,0.7,2.8,1.9,3.5c6,3.6,11.7,4.9,16.5,4.9c10.1,0,16.9-5.3,17.3-5.7c0.9-0.8,1.5-1.9,1.5-3.1v-24.5
			l38.6-11.7l35.5,35.2l0,0l-147.4,48.7l-4.9,1.6l-35.8-39.4L215,231.1z M166.2,320.2L166.2,320.2l-39.8-45.5l5.9-14.9l23.4,25.8
			l12.8,14.1l0,0v0L166.2,320.2z M173.9,323.9L173.9,323.9l2.3-20.3l0.3-2.3h0v0L331.6,250l0,0l9.6,20.4L173.9,323.9z"/>
	</g>
</g>
</svg>
