<?xml version="1.0" encoding="utf-8"?>
<!-- Generator: Adobe Illustrator 16.0.0, SVG Export Plug-In . SVG Version: 6.00 Build 0)  -->
<!DOCTYPE svg PUBLIC "-//W3C//DTD SVG 1.1//EN" "http://www.w3.org/Graphics/SVG/1.1/DTD/svg11.dtd">
<svg version="1.1" id="Calque_1" xmlns="http://www.w3.org/2000/svg" xmlns:xlink="http://www.w3.org/1999/xlink" x="0px" y="0px"
	 width="30px" height="25px" viewBox="0 0 30 25" enable-background="new 0 0 30 25" xml:space="preserve">
<g id="Calque_2">
	<path fill="#0F6783" d="M26.982,4.296L30,3.68c0,0-2.531,2.888-3.018,3.046h-0.017c-0.069,1.409,0.017,1.831,0.017,1.831
		C21.209,33.65,0,22.557,0,22.557c7.716,0.211,8.411-3.047,8.411-3.047c-4.526-0.686-5.394-3.645-5.394-3.645
		c1.543,0.704,2.394-0.616,2.394-0.616c-4.873-1.286-4.197-6.092-4.197-6.092c0.815,0.757,2.15,1.039,2.948,1.144
		C3.606,9.65-0.937,4.103,1.821,1.232c0,0,3.33,6.075,12.139,6.656l0.589-0.159c-0.086-0.422-0.139-0.88-0.139-1.338
		c0-3.521,2.81-6.392,6.294-6.392c4.196,0,5.099,2.43,5.099,2.43l2.999-1.831C28.787,0.634,28.457,3.68,26.982,4.296z"/>
</g>
</svg>
