<?xml version="1.0" encoding="utf-8"?>
<!-- Generator: Adobe Illustrator 16.0.0, SVG Export Plug-In . SVG Version: 6.00 Build 0)  -->
<!DOCTYPE svg PUBLIC "-//W3C//DTD SVG 1.1//EN" "http://www.w3.org/Graphics/SVG/1.1/DTD/svg11.dtd">
<svg version="1.1" id="Calque_1" xmlns="http://www.w3.org/2000/svg" xmlns:xlink="http://www.w3.org/1999/xlink" x="0px" y="0px"
	 width="90px" height="95px" viewBox="0 0 90 95" enable-background="new 0 0 90 95" xml:space="preserve">
<polygon fill="#A4CE4C" points="45,0.001 17.188,9.073 0,32.822 0,62.179 17.189,85.929 45,95.001 72.812,85.929 90,62.179 
	90,32.822 72.811,9.073 "/>
<polyline fill="#1D1D1B" points="20.861,48.508 17.375,30.509 20.838,30.509 23.03,44.148 25.374,30.509 28.148,30.509 
	30.725,44.417 32.636,30.509 36.064,30.509 32.8,48.508 28.836,48.508 26.761,37.135 24.848,48.508 "/>
<rect x="37.332" y="30.509" fill="#1D1D1B" width="3.347" height="18"/>
<g>
	<path fill="#1D1D1B" d="M42.678,42.184h3.346v1.158c0,1.107,0.138,1.86,0.414,2.261c0.276,0.402,0.752,0.603,1.429,0.603
		c0.708,0,1.245-0.18,1.614-0.537c0.37-0.358,0.554-0.887,0.554-1.591c0-0.537-0.128-0.999-0.385-1.385
		c-0.256-0.385-0.811-0.881-1.666-1.49l-1.715-1.214c-1.478-1.03-2.415-1.88-2.816-2.55c-0.4-0.671-0.6-1.512-0.6-2.524
		c0-1.512,0.447-2.697,1.34-3.554c0.895-0.856,2.127-1.285,3.697-1.285c1.663,0,2.938,0.456,3.824,1.367
		c0.886,0.912,1.329,2.222,1.329,3.928c0,0.171-0.003,0.304-0.006,0.397c-0.004,0.092-0.011,0.175-0.018,0.246h-3.171v-0.48
		c0-0.975-0.159-1.671-0.478-2.093c-0.321-0.419-0.844-0.63-1.575-0.63c-0.536,0-0.957,0.157-1.266,0.474
		c-0.306,0.314-0.459,0.753-0.459,1.313c0,0.757,0.687,1.594,2.063,2.514c0.016,0.007,0.027,0.017,0.036,0.023l1.842,1.251
		c1.312,0.872,2.204,1.697,2.671,2.473c0.467,0.774,0.697,1.762,0.697,2.963c0,1.635-0.466,2.897-1.398,3.786
		c-0.934,0.889-2.267,1.333-3.998,1.333c-1.803,0-3.147-0.469-4.029-1.404c-0.883-0.934-1.323-2.36-1.323-4.276
		c0-0.203,0.016-0.538,0.047-1.006"/>
	<polyline fill="#1D1D1B" points="55.406,48.508 55.406,30.509 64.629,30.509 64.629,33.5 58.729,33.5 58.729,37.662 64.22,37.662 
		64.22,40.514 58.729,40.514 58.729,45.469 64.768,45.469 64.768,48.508 	"/>
	<path fill="#FFFFFF" d="M33.865,62.86h2.611c0,0.063,0.004,0.154,0.011,0.276c0.007,0.121,0.01,0.219,0.01,0.287
		c0,1.672-0.353,2.914-1.054,3.726c-0.704,0.812-1.777,1.216-3.224,1.216c-0.688,0-1.276-0.089-1.77-0.266
		c-0.493-0.18-0.918-0.458-1.272-0.833c-0.486-0.501-0.831-1.19-1.03-2.068c-0.199-0.875-0.299-2.403-0.299-4.584
		c0-1.492,0.059-2.677,0.178-3.556c0.118-0.882,0.303-1.537,0.551-1.969c0.388-0.663,0.87-1.146,1.444-1.441
		c0.574-0.298,1.305-0.446,2.199-0.446c1.459,0,2.52,0.381,3.186,1.146c0.665,0.764,1,1.991,1.006,3.682h-2.602v-0.345
		c0-0.784-0.127-1.368-0.38-1.752c-0.251-0.388-0.637-0.58-1.155-0.58c-0.641,0-1.081,0.267-1.315,0.799
		c-0.234,0.533-0.35,2.005-0.35,4.416c0,2.606,0.112,4.188,0.341,4.754c0.227,0.563,0.663,0.846,1.305,0.846
		c0.598,0,1.018-0.221,1.254-0.662c0.238-0.442,0.355-1.258,0.355-2.448"/>
	<path fill="#FFFFFF" d="M40.901,62.212h2.284l-1.152-6.07 M37.044,68.018l3.249-14.469h3.602l3.276,14.469h-2.893l-0.71-3.635
		h-3.089l-0.693,3.635H37.044z"/>
	<polyline fill="#FFFFFF" points="48.047,68.018 48.047,53.549 52.09,53.549 54.065,62.916 56.041,53.549 60.083,53.549 
		60.083,68.018 57.519,68.018 57.574,55.184 54.889,68.018 53.241,68.018 50.555,55.184 50.62,68.018 	"/>
	<path fill="#FFFFFF" d="M64.591,59.88h1.122c0.836,0,1.422-0.162,1.76-0.491c0.337-0.329,0.506-0.893,0.506-1.688
		c0-0.801-0.155-1.357-0.463-1.665c-0.31-0.313-0.897-0.468-1.765-0.468h-1.16 M61.999,68.018V53.549h4.661
		c1.422,0,2.444,0.319,3.068,0.959s0.937,1.685,0.937,3.139c0,1.426-0.334,2.489-0.997,3.189c-0.664,0.697-1.681,1.048-3.047,1.048
		h-1.953v6.134H61.999z"/>
	<path fill="#FFFFFF" d="M24.064,62.749c0.931-0.981,1.396-2.201,1.396-3.655v-5.689H20.33v5.399h2.627v0.332
		c0,0.956-0.23,1.728-0.692,2.316c-0.464,0.588-1.107,0.938-1.935,1.047v2.036C21.888,64.329,23.134,63.732,24.064,62.749"/>
</g>
</svg>
