<?xml version="1.0" encoding="utf-8"?>
<!-- Generator: Adobe Illustrator 16.0.0, SVG Export Plug-In . SVG Version: 6.00 Build 0)  -->
<!DOCTYPE svg PUBLIC "-//W3C//DTD SVG 1.1//EN" "http://www.w3.org/Graphics/SVG/1.1/DTD/svg11.dtd">
<svg version="1.1" id="Calque_1" xmlns="http://www.w3.org/2000/svg" xmlns:xlink="http://www.w3.org/1999/xlink" x="0px" y="0px"
	 width="35px" height="35px" viewBox="0 0 35 35" enable-background="new 0 0 35 35" xml:space="preserve">
<path fill="#0F6783" d="M17.5,0C7.851,0,0,7.851,0,17.5C0,27.15,7.851,35,17.5,35C27.15,35,35,27.15,35,17.5
	C35,7.851,27.15,0,17.5,0z"/>
<g>
	<path fill="#FFFFFF" d="M26.406,24.953l-1.003,1.003c-0.91,0.91-1.563,1.307-4.597,0.817c-3.033-0.49-6.58-3.733-8.307-5.46
		c-1.727-1.728-3.43-4.458-4.107-6.627c-0.676-2.17-0.396-4.061,0.456-4.912c0.852-0.852,0.63-0.63,1.318-1.319
		c0.688-0.688,1.575-0.478,2.054,0c0.479,0.479,2.823,2.823,3.243,3.243c0.42,0.42,0.397,1.097,0,1.494l-1.96,1.96
		c-0.292,0.292-0.303,0.49-0.14,0.793c0.164,0.303,1.482,1.995,2.66,3.173c1.178,1.18,2.566,2.241,2.893,2.428
		c0.328,0.187,0.659,0.285,0.917,0.028l1.673-1.674c0.648-0.647,1.541-0.642,2.183,0s1.913,1.913,2.718,2.718
		C27.212,23.425,27.142,24.218,26.406,24.953"/>
</g>
</svg>
