<?xml version="1.0" encoding="utf-8"?>
<!-- Generator: Adobe Illustrator 16.0.0, SVG Export Plug-In . SVG Version: 6.00 Build 0)  -->
<!DOCTYPE svg PUBLIC "-//W3C//DTD SVG 1.1//EN" "http://www.w3.org/Graphics/SVG/1.1/DTD/svg11.dtd">
<svg version="1.1" id="Calque_1" xmlns="http://www.w3.org/2000/svg" xmlns:xlink="http://www.w3.org/1999/xlink" x="0px" y="0px"
	 width="25px" height="25px" viewBox="0 0 25 25" enable-background="new 0 0 25 25" xml:space="preserve">
<g id="Calque_2_1_">
	<g>
		<g>
			<path fill="#0F6783" d="M0.422,8.292h5.194V25H0.422V8.292z M3.011,0c1.655,0,3.01,1.341,3.01,3.017
				c0,1.658-1.338,3.017-3.01,3.017C1.355,6.034,0,4.693,0,3.017C0.018,1.341,1.355,0,3.011,0"/>
			<path fill="#0F6783" d="M8.856,8.292h4.964v2.276h0.07c0.688-1.306,2.377-2.7,4.894-2.7c5.247,0,6.216,3.458,6.216,7.958v9.156
				h-5.177v-8.115c0-1.941-0.035-4.429-2.693-4.429c-2.693,0-3.099,2.117-3.099,4.287v8.257H8.856V8.292z"/>
		</g>
	</g>
</g>
</svg>
