<?xml version="1.0" encoding="utf-8"?>
<!-- Generator: Adobe Illustrator 16.0.0, SVG Export Plug-In . SVG Version: 6.00 Build 0)  -->
<!DOCTYPE svg PUBLIC "-//W3C//DTD SVG 1.1//EN" "http://www.w3.org/Graphics/SVG/1.1/DTD/svg11.dtd">
<svg version="1.1" id="Calque_1" xmlns="http://www.w3.org/2000/svg" xmlns:xlink="http://www.w3.org/1999/xlink" x="0px" y="0px"
	 width="100px" height="120px" viewBox="0 0 100 120" enable-background="new 0 0 100 120" xml:space="preserve">
<g>
	<path fill="#FFFFFF" d="M55.984,58.156l7.564-8.651l23.324,9.013c0.037,0.019,0.076,0.038,0.133,0.038
		c0.113,0.038,0.209,0.038,0.324,0.038c0.381,0,0.742-0.171,0.99-0.476l6.898-8.708l-0.096,7.908l2.516,0.038l0.152-11.605
		c-0.039-0.038-0.039-0.057-0.039-0.057c0-0.019,0-0.019,0-0.038s0-0.019,0-0.038c0-0.057-0.018-0.095-0.018-0.133
		c0-0.019,0-0.019,0-0.038s0-0.019-0.02-0.038c-0.02-0.057-0.039-0.114-0.057-0.171c0-0.019,0-0.019-0.02-0.038l-14.92-32.28
		c0-0.019-0.02-0.019-0.02-0.038c-0.02-0.038-0.039-0.057-0.057-0.095c-0.02-0.038-0.039-0.057-0.059-0.076
		c-0.018-0.019-0.037-0.057-0.057-0.076s-0.037-0.057-0.076-0.076c-0.02-0.019-0.057-0.038-0.076-0.057s-0.057-0.038-0.076-0.057
		s-0.057-0.038-0.096-0.057c-0.037-0.019-0.057-0.038-0.094-0.057c-0.039-0.019-0.059-0.019-0.096-0.038
		c-0.039-0.019-0.076-0.019-0.096-0.039c0,0,0,0-0.02,0L44.626,2.038c0,0,0,0-0.02,0C44.455,2,44.302,2,44.169,2h-0.02h-0.02
		c-0.133,0.019-0.266,0.057-0.4,0.114h-0.018c-0.02,0-0.02,0.019-0.039,0.019s-0.02,0.019-0.037,0.019L17.873,18.063l-0.02,0.019
		c-0.057,0.038-0.094,0.057-0.133,0.095c-0.02,0.019-0.037,0.038-0.057,0.057c-0.039,0.038-0.057,0.057-0.096,0.095
		c-0.02,0.019-0.037,0.039-0.037,0.057c-0.02,0.039-0.059,0.077-0.076,0.115c0,0.019-0.02,0.019-0.02,0.038L2.134,46.875
		c0,0.019,0,0.019-0.02,0.038c-0.02,0.057-0.039,0.095-0.057,0.152c0,0.019-0.02,0.038-0.02,0.057
		C2.019,47.18,2.019,47.237,2,47.294c0,0.019,0,0.019,0,0.038c0,0.076,0,0.133,0,0.209c0,0.019,0,0.038,0,0.057
		c0,0.038,0,0.076,0.02,0.114l1.906,9.833l2.477-0.477l-1.334-6.917l2.4,1.563l5.488,3.583l0.191,2.115l2.514-0.209l-0.037-0.362
		l2.82,1.563l1.219-2.191l-3.297-1.829l29.498-24.886L61.51,47.98l-7.432,8.518L55.984,58.156z M13.128,52.439l-3.869-2.534
		l-4.363-2.858l11.566-21.418L13.128,52.439z M15.777,51.563l3.811-30.774l23.82,7.45L15.777,51.563z M21.55,18.769L43.179,5.43
		l1.428,20.56L21.55,18.769z M94.99,45.598l-6.861,8.651l-4.191-28.488L94.99,45.598z M85.748,55.354l-20.693-7.984l15.891-24.734
		L85.748,55.354z M80.336,14.405l0.057,2.801L73.59,14.31L61.947,9.375L80.336,14.405z M46.113,11.547L45.675,5.22l32.012,13.586
		l-30.545,7.355L46.113,11.547z M48.265,28.487l30.661-7.375l-15.91,24.772L48.265,28.487z"/>
	<polygon fill="#FFFFFF" points="86.205,93.674 86.205,84.033 96.914,84.033 96.914,78.487 86.205,78.487 86.205,70.389 
		97.715,70.389 97.715,64.559 79.727,64.559 79.727,99.601 98,99.601 98,99.582 98,93.674 	"/>
	<polygon fill="#FFFFFF" points="20.197,99.582 23.933,77.439 27.992,99.582 35.708,99.582 42.074,64.539 35.384,64.539 
		31.65,91.617 26.619,64.539 21.226,64.539 16.654,91.102 12.367,64.539 5.621,64.539 12.423,99.582 	"/>
	<rect x="44.494" y="64.539" fill="#FFFFFF" width="6.536" height="35.043"/>
	<path fill="#FFFFFF" d="M69.227,79.879l-3.602-2.439c-0.018-0.02-0.037-0.038-0.076-0.038c-2.686-1.791-4.02-3.411-4.02-4.897
		c0-1.086,0.305-1.943,0.895-2.553c0.592-0.61,1.43-0.915,2.479-0.915c1.428,0,2.457,0.399,3.066,1.22
		c0.629,0.819,0.934,2.172,0.934,4.078v0.934h6.193c0.02-0.134,0.02-0.305,0.039-0.477c0-0.191,0.018-0.438,0.018-0.781
		c0-3.316-0.857-5.869-2.59-7.641c-1.734-1.773-4.213-2.668-7.471-2.668c-3.068,0-5.469,0.838-7.203,2.496
		c-1.752,1.677-2.609,3.982-2.609,6.917c0,1.962,0.381,3.601,1.162,4.916c0.781,1.296,2.609,2.954,5.488,4.954l3.334,2.363
		c1.678,1.182,2.744,2.152,3.258,2.896c0.496,0.742,0.744,1.658,0.744,2.687c0,1.372-0.363,2.401-1.086,3.087
		c-0.725,0.705-1.773,1.048-3.145,1.048c-1.314,0-2.248-0.381-2.783-1.162c-0.533-0.781-0.799-2.249-0.799-4.401v-2.249h-6.537
		v0.152h0.02c-0.057,0.915-0.096,1.563-0.096,1.963c0,3.735,0.857,6.497,2.572,8.327c1.717,1.829,4.346,2.725,7.852,2.725
		c3.373,0,5.982-0.857,7.813-2.592c1.83-1.733,2.725-4.191,2.725-7.374c0-2.344-0.457-4.249-1.371-5.774
		C73.514,83.176,71.781,81.574,69.227,79.879z"/>
	<rect x="12.384" y="104.346" fill="#FFFFFF" width="32.014" height="6.174"/>
	<path fill="#FFFFFF" d="M50.457,104.346h-2.82v6.174h1.602v-2.211h1.278c0.686,0,1.219-0.189,1.58-0.533
		c0.363-0.344,0.553-0.857,0.553-1.506c0-0.629-0.17-1.105-0.553-1.429C51.715,104.518,51.162,104.346,50.457,104.346z
		 M50.914,106.88c-0.133,0.134-0.342,0.19-0.627,0.19h-1.049v-1.506h1.029c0.286,0,0.514,0.076,0.647,0.191
		c0.135,0.114,0.211,0.305,0.211,0.553C51.125,106.574,51.049,106.766,50.914,106.88z"/>
	<path fill="#FFFFFF" d="M59.434,109.452c0-0.229-0.02-0.381-0.02-0.515c-0.02-0.438-0.076-0.762-0.191-0.934
		c-0.113-0.172-0.305-0.324-0.57-0.419c0.342-0.171,0.59-0.382,0.742-0.629c0.152-0.248,0.229-0.553,0.229-0.896
		c0-0.591-0.189-1.01-0.553-1.296c-0.381-0.286-0.953-0.419-1.734-0.419h-2.953v6.154h1.563v-2.305h1.049
		c0.266,0,0.477,0.057,0.609,0.171s0.229,0.286,0.248,0.533c0.02,0.114,0.02,0.343,0.037,0.724c0,0.382,0.059,0.687,0.135,0.896
		h1.656v-0.21C59.527,110.233,59.451,109.947,59.434,109.452z M57.852,106.822c-0.152,0.115-0.381,0.172-0.705,0.172h-1.162v-1.391
		h1.219c0.305,0,0.514,0.057,0.668,0.171c0.133,0.096,0.209,0.267,0.209,0.495C58.08,106.518,58.004,106.708,57.852,106.822z"/>
	<path fill="#FFFFFF" d="M64.367,104.174c-0.934,0-1.695,0.285-2.248,0.877c-0.553,0.59-0.838,1.371-0.838,2.381
		c0,1.011,0.285,1.792,0.838,2.383c0.553,0.59,1.297,0.877,2.248,0.877c0.953,0,1.715-0.287,2.268-0.877
		c0.553-0.591,0.84-1.391,0.84-2.383c0-1.01-0.287-1.791-0.84-2.381C66.082,104.459,65.32,104.174,64.367,104.174z M65.473,108.881
		c-0.246,0.324-0.629,0.495-1.105,0.495c-0.475,0-0.857-0.152-1.104-0.495c-0.248-0.344-0.383-0.82-0.383-1.449
		c0-0.628,0.135-1.104,0.383-1.447c0.266-0.324,0.629-0.496,1.104-0.496c0.477,0,0.84,0.152,1.105,0.496
		c0.248,0.343,0.381,0.819,0.381,1.447C65.854,108.061,65.74,108.537,65.473,108.881z"/>
	<path fill="#FFFFFF" d="M72.143,108.328h1.371c-0.057,0.324-0.209,0.59-0.457,0.781c-0.248,0.19-0.553,0.285-0.914,0.285
		c-0.457,0-0.838-0.171-1.105-0.533c-0.285-0.361-0.42-0.838-0.42-1.43c0-0.609,0.135-1.104,0.42-1.467
		c0.285-0.361,0.648-0.553,1.105-0.553c0.305,0,0.553,0.076,0.762,0.21c0.211,0.152,0.363,0.343,0.457,0.61h1.506
		c-0.133-0.648-0.418-1.163-0.895-1.525c-0.477-0.361-1.068-0.553-1.791-0.553c-0.973,0-1.734,0.305-2.307,0.915
		s-0.857,1.41-0.857,2.421c0,0.476,0.076,0.895,0.209,1.295c0.135,0.4,0.344,0.743,0.611,1.029c0.246,0.285,0.551,0.495,0.895,0.648
		c0.344,0.133,0.705,0.209,1.105,0.209c0.438,0,0.801-0.076,1.123-0.229c0.307-0.152,0.592-0.4,0.82-0.725l0.133,0.801v-0.02h1.01
		v-3.354h-2.781V108.328z"/>
	<path fill="#FFFFFF" d="M81.938,109.452c0-0.229-0.02-0.381-0.02-0.515c-0.02-0.438-0.076-0.762-0.191-0.934
		c-0.113-0.172-0.305-0.324-0.57-0.419c0.342-0.171,0.59-0.382,0.742-0.629c0.152-0.248,0.229-0.553,0.229-0.896
		c0-0.591-0.189-1.01-0.553-1.296c-0.381-0.286-0.951-0.419-1.732-0.419h-2.955v6.154h1.563v-2.305h1.049
		c0.266,0,0.477,0.057,0.609,0.171s0.229,0.286,0.248,0.533c0.02,0.114,0.02,0.343,0.037,0.724c0,0.382,0.059,0.687,0.135,0.896
		h1.658v-0.21C82.031,110.233,81.955,109.947,81.938,109.452z M80.355,106.822c-0.152,0.115-0.381,0.172-0.705,0.172h-1.162v-1.391
		h1.219c0.305,0,0.516,0.057,0.668,0.171c0.133,0.096,0.209,0.267,0.209,0.495C80.584,106.518,80.508,106.708,80.355,106.822z"/>
	<path fill="#FFFFFF" d="M85.652,104.346l-2.211,6.174h1.641l0.342-1.125h2.059l0.381,1.125h1.695l-2.172-6.174H85.652z
		 M85.805,108.1l0.668-2.135l0.686,2.135H85.805z"/>
	<path fill="#FFFFFF" d="M94.742,107.203c-0.076,0.306-0.152,0.61-0.229,0.877c-0.057,0.268-0.115,0.533-0.172,0.781
		c-0.037-0.229-0.096-0.477-0.152-0.724c-0.057-0.267-0.115-0.515-0.191-0.782l-0.818-3.01h-2.172v6.174v0.02h1.428v-2.249
		c0-0.248,0-0.591-0.018-1.029c0-0.419-0.02-0.915-0.039-1.468l1.162,4.746h1.563l1.182-4.746c-0.02,0.458-0.02,0.857-0.037,1.201
		c-0.02,0.361-0.02,0.629-0.02,0.819v2.726h1.447v-6.175h-2.172L94.742,107.203z"/>
</g>
</svg>
