<?xml version="1.0" encoding="utf-8"?>
<!-- Generator: Adobe Illustrator 16.0.0, SVG Export Plug-In . SVG Version: 6.00 Build 0)  -->
<!DOCTYPE svg PUBLIC "-//W3C//DTD SVG 1.1//EN" "http://www.w3.org/Graphics/SVG/1.1/DTD/svg11.dtd">
<svg version="1.1" id="Calque_1" xmlns="http://www.w3.org/2000/svg" xmlns:xlink="http://www.w3.org/1999/xlink" x="0px" y="0px"
	 width="118px" height="140px" viewBox="0 0 118 140" enable-background="new 0 0 118 140" xml:space="preserve">
<g>
	<polygon fill="#00A1C5" points="51.937,5 99.142,17.896 99.283,25.088 	"/>
	<polygon fill="#00748F" points="118,58.735 99.283,25.088 99.142,17.896 	"/>
	<polygon fill="#006781" points="106.524,73.004 99.283,25.088 118,58.735 	"/>
	<polygon fill="#00748F" points="75.812,61.623 99.283,25.088 106.524,73.004 	"/>
	<polygon fill="#0086A5" points="54.09,35.973 99.283,25.088 75.812,61.623 	"/>
	<polygon fill="#0098B9" points="51.937,5 99.283,25.088 54.09,35.973 	"/>
	<polygon fill="#008FB2" points="19.355,25.088 51.937,5 54.09,35.973 	"/>
	<polygon fill="#00819E" points="13.795,69.975 19.355,25.088 54.09,35.973 	"/>
	<polygon fill="#006A86" points="0,60.959 19.355,25.088 13.795,69.975 	"/>
	<polygon fill="#006781" points="13.795,69.975 19.97,73.405 65.519,73.405 75.812,61.623 54.09,35.973 	"/>
	<polygon fill="#004C65" points="65.519,73.405 105.176,73.405 106.524,73.004 75.812,61.623 	"/>
	<polygon fill="#00546C" points="106.524,73.004 106.737,73.405 117.811,73.405 118,58.735 	"/>
	<polygon fill="#00465C" points="106.358,73.405 106.737,73.405 106.524,73.004 	"/>
	<polygon fill="#00576F" points="15.19,73.405 19.97,73.405 13.795,69.975 	"/>
	<polygon fill="#004862" points="2.413,73.405 12.966,73.405 13.795,69.975 0,60.959 	"/>
	<polygon fill="#004E67" points="105.176,73.405 106.358,73.405 106.524,73.004 	"/>
	<path d="M117.646,122.456v-7.335h-14.623v-11.973h13.298v-6.887h-13.298V86.206h14.291v-7.24H94.977v43.49H117.646L117.646,122.456
		z M64.193,107.336c-0.07,1.136-0.118,1.94-0.118,2.438c0,4.638,1.064,8.068,3.195,10.34c2.128,2.248,5.394,3.384,9.747,3.384
		c4.188,0,7.43-1.065,9.679-3.219c2.271-2.153,3.384-5.205,3.384-9.156c0-2.91-0.568-5.277-1.704-7.17
		c-1.136-1.869-3.289-3.856-6.46-5.962l-4.472-3.029c-0.024-0.023-0.048-0.047-0.095-0.047c-3.289-2.225-4.945-4.259-4.945-6.081
		c0-1.35,0.379-2.414,1.112-3.171s1.774-1.136,3.076-1.136c1.774,0,3.028,0.497,3.81,1.514c0.78,1.019,1.159,2.698,1.159,5.064
		v1.158h7.689c0.024-0.164,0.024-0.378,0.048-0.59c0-0.237,0.023-0.545,0.023-0.971c0-4.117-1.064-7.287-3.218-9.488
		s-5.229-3.313-9.275-3.313c-3.81,0-6.791,1.041-8.944,3.1c-2.177,2.082-3.241,4.922-3.241,8.588c0,2.438,0.474,4.473,1.442,6.105
		c0.971,1.609,3.242,3.668,6.815,6.152l4.141,2.935c2.082,1.467,3.407,2.674,4.046,3.596c0.615,0.923,0.923,2.059,0.923,3.337
		c0,1.703-0.449,2.98-1.349,3.833c-0.899,0.875-2.2,1.301-3.904,1.301c-1.632,0-2.792-0.473-3.454-1.443
		c-0.663-0.97-0.994-2.792-0.994-5.466v-2.792h-8.116V107.336z M59.343,78.942h-8.115v43.489h8.115V78.942z M21.059,122.456
		l4.638-27.472l5.017,27.472h9.605l7.903-43.49h-8.305l-4.638,33.6l-6.247-33.6h-6.696l-5.679,32.961l-5.323-32.984H2.958
		l8.446,43.489h9.654V122.456z"/>
	<path fill="#00465C" d="M15.19,73.405l-1.419-3.431c0,0-0.332,1.35-0.828,3.431H15.19z"/>
	<path fill="#C9C7C7" d="M11.476,128.466v7.667h39.752v-7.667H11.476z"/>
	<g>
		<path fill="#646463" d="M55.25,136.133v-7.667h3.501c0.876,0,1.563,0.213,2.035,0.615c0.474,0.402,0.687,0.994,0.687,1.774
			c0,0.805-0.236,1.443-0.687,1.869c-0.449,0.427-1.111,0.663-1.964,0.663h-1.585v2.745H55.25L55.25,136.133z M57.214,131.85h1.301
			c0.355,0,0.615-0.071,0.781-0.237c0.165-0.142,0.26-0.378,0.26-0.709c0-0.308-0.095-0.545-0.26-0.687
			c-0.166-0.142-0.449-0.236-0.804-0.236h-1.278V131.85L57.214,131.85z"/>
		<path fill="#646463" d="M63.626,136.133v-7.667h3.667c0.971,0,1.681,0.166,2.153,0.521c0.45,0.354,0.687,0.876,0.687,1.609
			c0,0.426-0.095,0.804-0.284,1.112c-0.189,0.307-0.497,0.567-0.923,0.78c0.332,0.118,0.568,0.308,0.71,0.521
			c0.143,0.213,0.213,0.615,0.236,1.159c0,0.166,0.024,0.354,0.024,0.639c0.022,0.616,0.118,0.971,0.307,1.064v0.262h-2.058
			c-0.096-0.262-0.166-0.64-0.166-1.112c-0.023-0.474-0.023-0.758-0.047-0.899c-0.024-0.308-0.142-0.521-0.308-0.662
			c-0.166-0.143-0.427-0.214-0.758-0.214h-1.302v2.863h-1.939V136.133z M65.59,131.755h1.467c0.402,0,0.687-0.071,0.876-0.213
			c0.188-0.143,0.284-0.379,0.284-0.687c0-0.284-0.096-0.497-0.261-0.615c-0.189-0.142-0.449-0.213-0.829-0.213h-1.514v1.728H65.59z
			"/>
		<path fill="#646463" d="M72.19,132.299c0-1.254,0.355-2.224,1.042-2.958c0.686-0.733,1.632-1.088,2.792-1.088
			c1.184,0,2.13,0.354,2.816,1.088c0.686,0.734,1.041,1.704,1.041,2.958c0,1.23-0.355,2.224-1.041,2.958
			c-0.687,0.733-1.633,1.088-2.816,1.088c-1.183,0-2.106-0.354-2.792-1.088C72.546,134.547,72.19,133.553,72.19,132.299z
			 M74.179,132.299c0,0.78,0.165,1.372,0.474,1.799c0.307,0.425,0.78,0.614,1.372,0.614s1.065-0.212,1.372-0.614
			c0.332-0.427,0.474-1.019,0.474-1.799s-0.166-1.372-0.474-1.798c-0.331-0.426-0.78-0.615-1.372-0.615s-1.041,0.213-1.372,0.615
			C74.344,130.927,74.179,131.542,74.179,132.299z"/>
		<path fill="#646463" d="M87.878,136.133l-0.165-0.994c-0.284,0.402-0.639,0.71-1.017,0.898c-0.402,0.189-0.853,0.284-1.396,0.284
			c-0.497,0-0.946-0.095-1.373-0.26c-0.425-0.19-0.804-0.45-1.111-0.805c-0.332-0.354-0.592-0.781-0.758-1.277
			c-0.165-0.498-0.26-1.019-0.26-1.609c0-1.254,0.354-2.248,1.064-3.005c0.71-0.758,1.656-1.136,2.863-1.136
			c0.899,0,1.632,0.236,2.224,0.687c0.592,0.449,0.947,1.088,1.112,1.893h-1.869c-0.118-0.331-0.308-0.568-0.567-0.758
			c-0.261-0.165-0.568-0.26-0.947-0.26c-0.567,0-1.017,0.236-1.372,0.687c-0.354,0.449-0.521,1.064-0.521,1.821
			c0,0.733,0.166,1.325,0.521,1.774c0.331,0.449,0.805,0.663,1.372,0.663c0.45,0,0.829-0.118,1.137-0.354
			c0.307-0.237,0.496-0.568,0.567-0.971h-1.727v-1.467h3.453v4.164h-1.23V136.133z"/>
		<path fill="#646463" d="M91.57,136.133v-7.667h3.668c0.969,0,1.68,0.166,2.152,0.521c0.449,0.354,0.687,0.876,0.687,1.609
			c0,0.426-0.095,0.804-0.284,1.112c-0.189,0.307-0.497,0.567-0.923,0.78c0.331,0.118,0.567,0.308,0.71,0.521
			c0.142,0.213,0.213,0.615,0.237,1.159c0,0.166,0.022,0.354,0.022,0.639c0.024,0.616,0.119,0.971,0.309,1.064v0.262h-2.06
			c-0.094-0.262-0.165-0.64-0.165-1.112c-0.023-0.474-0.023-0.758-0.047-0.899c-0.024-0.308-0.143-0.521-0.309-0.662
			c-0.165-0.143-0.425-0.214-0.757-0.214h-1.301v2.863h-1.94V136.133z M93.533,131.755h1.468c0.402,0,0.686-0.071,0.876-0.213
			c0.188-0.143,0.283-0.379,0.283-0.687c0-0.284-0.095-0.497-0.26-0.615c-0.189-0.142-0.45-0.213-0.828-0.213h-1.515v1.728H93.533z"
			/>
		<path fill="#646463" d="M102.454,128.466h2.153l2.697,7.667h-2.105l-0.473-1.396h-2.557l-0.426,1.396H99.71L102.454,128.466z
			 M102.644,133.151h1.68l-0.852-2.65L102.644,133.151z"/>
		<path fill="#646463" d="M109.104,136.133v-7.667h2.697l1.018,3.738c0.095,0.331,0.166,0.639,0.236,0.971
			c0.071,0.307,0.142,0.615,0.189,0.898c0.07-0.308,0.142-0.639,0.213-0.97c0.095-0.331,0.189-0.71,0.284-1.089l0.946-3.525h2.697
			v7.666h-1.798v-3.383c0-0.237,0-0.568,0.023-1.018c0.023-0.426,0.023-0.923,0.047-1.49l-1.467,5.891h-1.94l-1.443-5.891
			c0.024,0.686,0.047,1.301,0.047,1.821c0.024,0.545,0.024,0.971,0.024,1.277v2.792h-1.774V136.133z"/>
	</g>
</g>
</svg>
